SplineFontDB: 3.2
FontName: SteMitest01test01
FullName: SteMitest01 test01
FamilyName: SteMitest01
Weight: Light
Copyright: Created by Krzysztof (Stenografow) Smirnow, with FontForge 2.0 (https://www.stenografia.pl)
Version: 002.000
ItalicAngle: 0
UnderlinePosition: -298
UnderlineWidth: 148
Ascent: 2000
Descent: 1000
InvalidEm: 0
sfntRevision: 0x00020000
LayerCount: 2
Layer: 0 0 "Warstwa t+AUIA-a" 1
Layer: 1 0 "Plan pierwszy" 0
HasVMetrics: 1
XUID: [1021 102 369710040 316419]
BaseHoriz: 0
StyleMap: 0x0040
FSType: 0
OS2Version: 4
OS2_WeightWidthSlopeOnly: 0
OS2_UseTypoMetrics: 1
CreationTime: 1379607424
ModificationTime: 1709559302
PfmFamily: 17
TTFWeight: 300
TTFWidth: 3
LineGap: 270
VLineGap: 270
Panose: 2 0 5 3 0 0 0 0 0 0
OS2TypoAscent: 2000
OS2TypoAOffset: 0
OS2TypoDescent: -1000
OS2TypoDOffset: 0
OS2TypoLinegap: 270
OS2WinAscent: 3557
OS2WinAOffset: 0
OS2WinDescent: 1092
OS2WinDOffset: 0
HheadAscent: 3557
HheadAOffset: 0
HheadDescent: -1092
HheadDOffset: 0
OS2SubXSize: 1950
OS2SubYSize: 2100
OS2SubXOff: 0
OS2SubYOff: 420
OS2SupXSize: 1950
OS2SupYSize: 2100
OS2SupXOff: 0
OS2SupYOff: 1440
OS2StrikeYSize: 149
OS2StrikeYPos: 776
OS2CapHeight: 3432
OS2XHeight: 1520
OS2FamilyClass: 2560
OS2Vendor: 'KsMi'
OS2CodePages: 00000001.00000000
OS2UnicodeRanges: 00000007.02000000.04000000.00000000
MarkAttachClasses: 1
DEI: 91125

StartChar: .notdef
Encoding: 65536 -1 0
Width: 1500
GlyphClass: 1
Flags: MW
HStem: 0 150<300 1200 300 1350> 1183 150<300 1200 300 300>
VStem: 150 150<150 150 150 1183> 1200 150<150 1183 1183 1183>
LayerCount: 2
Fore
SplineSet
300 150 m 1
 1200 150 l 1
 1200 1183 l 1
 300 1183 l 1
 300 150 l 1
150 0 m 1
 150 1333 l 1
 1350 1333 l 1
 1350 0 l 1
 150 0 l 1
EndSplineSet
EndChar

StartChar: dolTW.alt
Encoding: 7 7 1
Width: 523
GlyphClass: 2
Flags: MW
HStem: -52.8076 173.882
VStem: -119 120<61 139.998 119.843 139.998 118.792 140> 1.55919 119.441
LayerCount: 2
Fore
SplineSet
80 60 m 1
 60 80 l 1
 60 40 l 1
 40 60 l 1
 80 60 l 1
-39 120 m 1
 -59 140 l 1
 -59 100 l 1
 -79 120 l 1
 -39 120 l 1
-119 120 m 0
 -119 160 -99 179.998046875 -59 179.998046875 c 0
 -19 179.998046875 1 159.998046875 1 119.998046875 c 0
 1 117.586914062 0.9169921875 115.244140625 0.751953125 112.96875 c 2
 0.9990234375 109.998046875 l 1
 -5.33203125 72.6689453125 -7.0263671875 56.947265625 -4.083984375 62.8330078125 c 0
 -1.1416015625 68.71875 0.7392578125 73.6943359375 1.55859375 77.759765625 c 0
 6.1474609375 100.541015625 18.3681640625 113.943359375 38.220703125 117.965820312 c 0
 48.4482421875 120.038085938 57.7275390625 121.07421875 66.0595703125 121.07421875 c 0
 102.686523438 121.07421875 121 101.049804688 121 61 c 0
 120.333007812 -15 80 -52.935546875 0 -52.8076171875 c 0
 -79.3330078125 -52.935546875 -119 4 -119 118 c 0
 -119 118.35546875 -118.999023438 118.708984375 -118.99609375 119.060546875 c 0
 -118.999023438 119.372070312 -119 119.685546875 -119 120 c 0
EndSplineSet
EndChar

StartChar: e
Encoding: 101 101 4
Width: 957
GlyphClass: 2
Flags: MW
HStem: 2.6369 193.522
VStem: 0.000167847 957.182
LayerCount: 2
Fore
SplineSet
898.739257812 116.116210938 m 1
 916.919921875 137.783203125 l 1
 877.072265625 134.296875 l 1
 895.252929688 155.963867188 l 1
 898.739257812 116.116210938 l 1
61.935546875 42.9052734375 m 1
 80.1162109375 64.5732421875 l 1
 40.2685546875 61.0869140625 l 1
 58.44921875 82.75390625 l 1
 61.935546875 42.9052734375 l 1
890.770507812 195.724609375 m 2
 894.079101562 196.013671875 897.265625 196.159179688 900.327148438 196.159179688 c 0
 934.752929688 196.159179688 953.56640625 177.862304688 956.767578125 141.26953125 c 0
 957.043945312 138.112304688 957.181640625 135.068359375 957.181640625 132.138671875 c 0
 957.181640625 98.0966796875 938.53125 79.4443359375 901.229492188 76.1806640625 c 2
 65.421875 3.056640625 l 2
 62.2158203125 2.7763671875 59.1279296875 2.6357421875 56.1572265625 2.6357421875 c 0
 22.205078125 2.6357421875 3.6259765625 20.95703125 0.4208984375 57.599609375 c 0
 0.140625 60.8056640625 0 63.8935546875 0 66.8642578125 c 0
 0 100.81640625 18.3212890625 119.395507812 54.962890625 122.6015625 c 2
 890.770507812 195.724609375 l 2
EndSplineSet
EndChar

StartChar: g
Encoding: 103 103 5
Width: 120
GlyphClass: 2
Flags: MW
HStem: 0 960<40 80>
VStem: 0 120<60 899 900 920>
LayerCount: 2
Fore
SplineSet
80 900 m 1
 60 920 l 1
 60 880 l 1
 40 900 l 1
 80 900 l 1
80 60 m 1
 60 80 l 1
 60 40 l 1
 40 60 l 1
 80 60 l 1
60 960 m 0
 100 960 120 940 120 900 c 0
 120 899.83984375 120 899.6796875 119.999023438 899.51953125 c 0
 119.999023438 899.346679688 119.999023438 899.173828125 120 899 c 2
 120 60 l 2
 120 20 100 0 60 0 c 0
 20 0 0 20 0 60 c 2
 0 899 l 2
 -0 899.173828125 0 899.346679688 0.0009765625 899.51953125 c 0
 0.0009765625 899.6796875 0.0009765625 899.83984375 0 900 c 0
 0 940 20 960 60 960 c 0
EndSplineSet
EndChar

StartChar: i
Encoding: 105 105 6
Width: 121
GlyphClass: 2
Flags: MW
HStem: 0 21G<41 81> 480 20G<40 60.0796 61 81>
VStem: 1 120<60 426.284 426.284 426.284>
LayerCount: 2
Fore
SplineSet
80 440 m 1
 60 460 l 1
 60 420 l 1
 40 440 l 1
 80 440 l 1
81 60 m 1
 61 80 l 1
 61 40 l 1
 41 60 l 1
 81 60 l 1
0 440 m 0
 0 480 20 500 60 500 c 0
 60.1591796875 500 60.318359375 500 60.4765625 499.999023438 c 0
 60.650390625 499.999023438 60.8251953125 499.999023438 61 500 c 0
 101 500 121 479.666992188 121 439 c 2
 121 60 l 2
 121 20 101 0 61 0 c 0
 21 0 1 20 1 60 c 2
 1 426.284179688 l 2
 0.3330078125 430.58203125 0 435.154296875 0 440 c 0
EndSplineSet
EndChar

StartChar: k
Encoding: 107 107 7
Width: 120
GlyphClass: 2
Flags: MW
HStem: 0 21G<40 80>
VStem: 0 120<60 1648 1649 1669>
LayerCount: 2
Fore
SplineSet
80 1649 m 1
 60 1669 l 1
 60 1629 l 1
 40 1649 l 1
 80 1649 l 1
80 60 m 1
 60 80 l 1
 60 40 l 1
 40 60 l 1
 80 60 l 1
60 1709 m 0
 100 1709 120 1689 120 1649 c 0
 120 1648.83984375 120 1648.6796875 119.999023438 1648.51953125 c 0
 119.999023438 1648.34667969 119.999023438 1648.17382812 120 1648 c 2
 120 60 l 2
 120 20 100 0 60 0 c 0
 20 0 0 20 0 60 c 2
 0 1648 l 2
 -0 1648.17382812 0 1648.34667969 0.0009765625 1648.51953125 c 0
 0.0009765625 1648.6796875 0.0009765625 1648.83984375 0 1649 c 0
 0 1689 20 1709 60 1709 c 0
EndSplineSet
EndChar

StartChar: l
Encoding: 108 108 8
Width: 266
GlyphClass: 2
Flags: MW
HStem: -0.545731 21G 271.801 20G
VStem: 0 266.4
LayerCount: 2
Fore
SplineSet
179 221 m 1
 159 241 l 1
 159 201 l 1
 139 221 l 1
 179 221 l 1
125 221 m 1
 105 241 l 1
 105 201 l 1
 85 221 l 1
 125 221 l 1
178 69 m 1
 158 89 l 1
 158 49 l 1
 138 69 l 1
 178 69 l 1
128 68 m 1
 108 88 l 1
 108 48 l 1
 88 68 l 1
 128 68 l 1
76.693359375 14.1103515625 m 0
 25.564453125 38.4990234375 0.0009765625 87.9951171875 0.0009765625 162.599609375 c 0
 0.0009765625 197 14.267578125 227.133789062 42.80078125 253.000976562 c 0
 71.333984375 278.868164062 101.466796875 291.801757812 133.200195312 291.801757812 c 0
 164.93359375 291.801757812 195.06640625 278.6015625 223.599609375 252.201171875 c 0
 252.1328125 225.80078125 266.399414062 195.80078125 266.399414062 162.201171875 c 0
 266.399414062 88.5517578125 240.67578125 39.509765625 189.229492188 15.07421875 c 0
 169.954101562 4.6611328125 150.791015625 -0.544921875 131.740234375 -0.544921875 c 0
 113.286132812 -0.544921875 94.9375 4.33984375 76.693359375 14.1103515625 c 0
EndSplineSet
EndChar

StartChar: s
Encoding: 115 115 9
Width: 582
GlyphClass: 2
Flags: MW
HStem: 1.13509 124.361 549 126.55
VStem: 0 123.506 458.082 124.385
LayerCount: 2
Fore
SplineSet
474 147 m 1
 454 167 l 1
 454 127 l 1
 434 147 l 1
 474 147 l 1
80 331 m 1
 60 351 l 1
 60 311 l 1
 40 331 l 1
 80 331 l 1
331 62 m 1
 311 82 l 1
 311 42 l 1
 291 62 l 1
 331 62 l 1
290.633789062 61.4462890625 m 1
 270.633789062 81.4462890625 l 1
 270.633789062 41.4462890625 l 1
 250.633789062 61.4462890625 l 1
 290.633789062 61.4462890625 l 1
542 331 m 1
 522 351 l 1
 522 311 l 1
 502 331 l 1
 542 331 l 1
107 463 m 1
 87 483 l 1
 87 443 l 1
 67 463 l 1
 107 463 l 1
510 200 m 1
 490 220 l 1
 490 180 l 1
 470 200 l 1
 510 200 l 1
145 527 m 1
 125 547 l 1
 125 507 l 1
 105 527 l 1
 145 527 l 1
330 612 m 1
 310 632 l 1
 310 592 l 1
 290 612 l 1
 330 612 l 1
295 612 m 1
 275 632 l 1
 275 592 l 1
 255 612 l 1
 295 612 l 1
165 473 m 0
 137.337890625 424.590820312 123.506835938 377.517578125 123.506835938 331.78125 c 0
 123.506835938 284.420898438 138.337890625 238.494140625 168 194 c 0
 198.446289062 148.331054688 238.913085938 125.49609375 289.401367188 125.49609375 c 0
 289.767578125 125.49609375 290.133789062 125.497070312 290.500976562 125.499023438 c 0
 341.500976562 125.83203125 382.500976562 149.83203125 413.500976562 197.499023438 c 0
 443.22265625 243.200195312 458.083007812 290.280273438 458.083007812 338.739257812 c 0
 458.083007812 340.823242188 458.055664062 342.91015625 458.000976562 344.999023438 c 0
 456.66796875 395.666015625 442.66796875 442.333007812 416.000976562 485 c 0
 389.333984375 527.666992188 348.166992188 549 292.5 549 c 0
 236.833007812 549 194.333007812 523.666992188 165 473 c 0
100.346679688 588.369140625 m 0
 165.26953125 646.489257812 229.34765625 675.55078125 292.576171875 675.55078125 c 0
 355.805664062 675.55078125 418.1875 646.490234375 479.72265625 588.370117188 c 0
 548.220703125 523.830078125 582.469726562 442.169921875 582.469726562 343.388671875 c 0
 582.469726562 235.336914062 553.96875 154.541015625 496.967773438 101.000976562 c 0
 495.21484375 99.361328125 492.896484375 97.279296875 490.012695312 94.75390625 c 0
 487.12890625 92.228515625 483.698242188 89.1875 479.720703125 85.6298828125 c 0
 417.41015625 29.2998046875 354.640625 1.134765625 291.412109375 1.134765625 c 0
 228.182617188 1.134765625 164.494140625 29.2998046875 100.346679688 85.6298828125 c 0
 33.44921875 144.54296875 0 226.333007812 0 331 c 0
 -0 331.102539062 -0 331.205078125 0 331.307617188 c 0
 0 331.538085938 0 331.768554688 0 331.999023438 c 0
 0 437.33203125 27 516.999023438 81 570.999023438 c 0
 83.396484375 573.395507812 86.2275390625 575.99609375 89.494140625 578.80078125 c 0
 92.7607421875 581.60546875 96.3779296875 584.794921875 100.346679688 588.369140625 c 0
EndSplineSet
EndChar

StartChar: u
Encoding: 117 117 10
Width: 454
GlyphClass: 2
Flags: MW
HStem: -164.026 120.026 820 20G<374 414>
VStem: 0 120<25.3335 80 25.3335 80> 334 120<780 800>
LayerCount: 2
Fore
SplineSet
414 780 m 1
 394 800 l 1
 394 760 l 1
 374 780 l 1
 414 780 l 1
80 60 m 1
 60 80 l 1
 60 40 l 1
 40 60 l 1
 80 60 l 1
334 780 m 1
 334 820 354 840 394 840 c 0
 434 840 454 820 454 780 c 0
 453.336914062 150.649414062 358.006835938 -164.026367188 168.010742188 -164.026367188 c 0
 167.009765625 -164.026367188 166.005859375 -164.017578125 165 -164 c 0
 55 -162 0 -87.3330078125 0 60 c 0
 0 100 20 120 60 120 c 0
 100 120 120 100 120 60 c 0
 120 -9.3330078125 136 -44 168 -44 c 0
 278 -44 333 230.666992188 333 780 c 1
 334 780 l 1
EndSplineSet
EndChar

StartChar: z
Encoding: 122 122 11
Width: 449
GlyphClass: 2
Flags: MW
HStem: 0.0488281 127.951 355 126
VStem: 0 115<221.333 245.667 221.333 275.82> 331 118.371
LayerCount: 2
Fore
SplineSet
287.793945312 69.837890625 m 1
 267.793945312 89.837890625 l 1
 267.793945312 49.837890625 l 1
 247.793945312 69.837890625 l 1
 287.793945312 69.837890625 l 1
207 68 m 1
 187 88 l 1
 187 48 l 1
 167 68 l 1
 207 68 l 1
281 414 m 1
 261 434 l 1
 261 394 l 1
 241 414 l 1
 281 414 l 1
200 412 m 1
 180 432 l 1
 180 392 l 1
 160 412 l 1
 200 412 l 1
72 416 m 0
 120 459.333007812 170.666992188 481 224 481 c 0
 277.333007812 481 321 465.333007812 355 434 c 0
 417.396484375 376.497070312 448.853515625 311.497070312 449.37109375 239 c 0
 449.124023438 205.666992188 441.333984375 172 426.000976562 138 c 0
 402.41796875 85.70703125 360.682617188 44.986328125 300.794921875 15.837890625 c 0
 278.932617188 5.279296875 253.158203125 0.0166015625 223.47265625 0.048828125 c 0
 174.032226562 -0.005859375 131.259765625 15.138671875 95.15625 45.482421875 c 0
 31.71875 98.7998046875 0 163.048828125 0 238.229492188 c 0
 0 313.41015625 24 372.666992188 72 416 c 0
146.5 162.5 m 0
 167.5 139.5 194.333007812 128 227 128 c 0
 259.666992188 128 285.166992188 139 303.5 161 c 0
 321.833007812 183 331 205.666992188 331 229 c 0
 331 252.333007812 322 279.166015625 304 309.499023438 c 0
 286 339.83203125 260.666992188 354.999023438 228 354.999023438 c 0
 195.333007812 354.999023438 168.333007812 340.83203125 147 312.499023438 c 0
 125.666992188 284.166015625 115 257.833007812 115 233.5 c 0
 115 209.166992188 125.5 185.5 146.5 162.5 c 0
EndSplineSet
EndChar

StartChar: endash
Encoding: 8211 8211 12
Width: 1646
GlyphClass: 2
Flags: MW
HStem: 420 172<69 1549 69 1549> 698 170<69 1549 69 1549>
LayerCount: 2
Fore
SplineSet
69 868 m 1
 1549 868 l 1
 1549 698 l 1
 69 698 l 1
 69 868 l 1
69 592 m 1
 1549 592 l 1
 1549 420 l 1
 69 420 l 1
 69 592 l 1
EndSplineSet
EndChar

StartChar: quoteright
Encoding: 8217 8217 13
Width: 773
VWidth: 2048
GlyphClass: 2
Flags: MW
HStem: 2167 589<309 365 211 561>
VStem: 309 252<2550 2756 2550 2756>
LayerCount: 2
Fore
SplineSet
309 2756 m 1
 561 2756 l 1
 561 2550 l 1
 365 2167 l 1
 211 2167 l 1
 309 2550 l 1
 309 2756 l 1
EndSplineSet
EndChar

StartChar: quotesinglbase
Encoding: 8218 8218 14
Width: 773
VWidth: 2048
GlyphClass: 2
Flags: MW
HStem: -843 589<309 365 211 561>
VStem: 309 252<-460 -254 -460 -254>
LayerCount: 2
Fore
SplineSet
309 -254 m 1
 561 -254 l 1
 561 -460 l 1
 365 -843 l 1
 211 -843 l 1
 309 -460 l 1
 309 -254 l 1
EndSplineSet
EndChar

StartChar: quotedblright
Encoding: 8221 8221 15
Width: 1233
VWidth: 2048
GlyphClass: 2
Flags: MW
HStem: 2137 589<309 365 211 561 309 670 768 823>
VStem: 309 252<2520 2726 2520 2726> 768 252<2520 2726 2520 2726>
LayerCount: 2
Fore
SplineSet
309 2726 m 1
 561 2726 l 1
 561 2520 l 1
 365 2137 l 1
 211 2137 l 1
 309 2520 l 1
 309 2726 l 1
768 2726 m 1
 1020 2726 l 1
 1020 2520 l 1
 823 2137 l 1
 670 2137 l 1
 768 2520 l 1
 768 2726 l 1
EndSplineSet
EndChar

StartChar: quotedblbase
Encoding: 8222 8222 16
Width: 1233
VWidth: 2048
GlyphClass: 2
Flags: MW
HStem: -833 589<309 365 211 561 309 670 768 823>
VStem: 309 252<-450 -244 -450 -244> 768 252<-450 -244 -450 -244>
LayerCount: 2
Fore
SplineSet
309 -244 m 1
 561 -244 l 1
 561 -450 l 1
 365 -833 l 1
 211 -833 l 1
 309 -450 l 1
 309 -244 l 1
768 -244 m 1
 1020 -244 l 1
 1020 -450 l 1
 823 -833 l 1
 670 -833 l 1
 768 -450 l 1
 768 -244 l 1
EndSplineSet
EndChar

StartChar: poczPUA
Encoding: 57344 57344 18
Width: 1040
GlyphClass: 2
Flags: MW
HStem: -116.369 100.784 -116.369 156.595 467.149 21G 1015.23 108.545
VStem: -601.109 103.711 -412.145 91.8481 -110.973 74.4141 519.891 103.711 708.855 91.8481 906.316 89.9414
LayerCount: 2
Fore
SplineSet
1080.33984375 487.149414062 m 1x7fc0
 1145.08691406 449.794921875 l 1
 965.442382812 155.181640625 l 1
 928.358398438 -16.685546875 858.0078125 -102.619140625 754.390625 -102.619140625 c 0
 753.424804688 -102.619140625 752.456054688 -102.611328125 751.484375 -102.596679688 c 0
 739.861328125 -102.419921875 729.1171875 -101.180664062 719.251953125 -98.8798828125 c 1
 698.580078125 -110.538085938 675.291015625 -116.3671875 649.383789062 -116.3671875 c 0
 648.927734375 -116.369140625 648.47265625 -116.370117188 648.018554688 -116.370117188 c 0
 562.600585938 -116.370117188 519.891601562 -79.796875 519.891601562 -6.650390625 c 2
 519.891601562 487.1484375 l 1
 520.194335938 487.1484375 l 1
 521.649414062 953.408203125 l 1
 521.649414062 953.994140625 l 2
 521.258789062 1067.17773438 567.743164062 1123.76953125 661.102539062 1123.76953125 c 0
 754.170898438 1123.76953125 800.705078125 1066.4375 800.705078125 951.7734375 c 0
 800.705078125 784.587890625 741.670898438 602.645507812 623.602539062 405.946289062 c 1
 623.602539062 22.20703125 l 1
 621.844726562 22.20703125 l 1
 621.844726562 14.443359375 l 2
 621.844726562 -2.7626953125 628.481445312 -12.5751953125 641.754882812 -14.9931640625 c 1
 638.051757812 1.1748046875 636.200195312 19.5810546875 636.200195312 40.224609375 c 1
 726.288085938 40.224609375 l 1
 726.288085938 37.6015625 726.325195312 35.060546875 726.399414062 32.6025390625 c 2
 784.40234375 1.9072265625 l 1
 880.333007812 159.202148438 l 1
 896.985351562 241.14453125 905.646484375 350.850585938 906.317382812 488.321289062 c 1
 996.258789062 488.321289062 l 1
 995.668945312 435.140625 993.689453125 385.548828125 990.3203125 339.546875 c 1
 1080.33984375 487.149414062 l 1x7fc0
623.602539062 600.52734375 m 1
 680.047851562 739.78515625 708.465820312 855.99609375 708.856445312 949.16015625 c 0
 708.856445312 993.203125 693.036132812 1015.22460938 661.395507812 1015.22460938 c 0
 635.809570312 1015.22460938 623.211914062 993.203125 623.602539062 949.16015625 c 0
 624.432617188 891.54296875 624.84765625 833.681640625 624.84765625 775.576171875 c 0
 624.84765625 717.470703125 624.432617188 659.12109375 623.602539062 600.52734375 c 1
-110.971679688 487.1484375 m 1
 -36.5615234375 470.448242188 l 1
 -62.5380859375 319.959960938 -91.5419921875 220.350585938 -123.573242188 171.620117188 c 0
 -176.630859375 91.103515625 -244.772460938 30.3486328125 -327.997070312 -10.6455078125 c 1
 -360.044921875 -81.126953125 -407.918945312 -116.368164062 -471.619140625 -116.368164062 c 0
 -472.075195312 -116.370117188 -472.530273438 -116.37109375 -472.984375 -116.37109375 c 0
 -558.40234375 -116.37109375 -601.111328125 -79.7978515625 -601.111328125 -6.6513671875 c 2
 -601.111328125 487.147460938 l 1
 -600.80859375 487.147460938 l 1
 -599.353515625 953.407226562 l 1
 -599.353515625 953.993164062 l 2
 -599.744140625 1067.17675781 -553.259765625 1123.76855469 -459.900390625 1123.76855469 c 0
 -366.83203125 1123.76855469 -320.297851562 1066.43652344 -320.297851562 951.772460938 c 0
 -320.297851562 784.586914062 -379.33203125 602.64453125 -497.400390625 405.9453125 c 1
 -497.400390625 22.2060546875 l 1
 -499.158203125 22.2060546875 l 1
 -499.158203125 14.4423828125 l 2
 -499.158203125 -5.5771484375 -490.654296875 -15.5869140625 -473.646484375 -15.5869140625 c 0xbfc0
 -456.638671875 -15.5869140625 -442.770507812 -10.9677734375 -432.041992188 -1.728515625 c 1
 -444.517578125 22.2060546875 l 1
 -432.553710938 25.8447265625 -420.952148438 29.751953125 -409.712890625 33.927734375 c 0
 -409.077148438 35.779296875 -408.471679688 37.6826171875 -407.895507812 39.638671875 c 1
 -402.369140625 36.7138671875 l 1
 -234.48046875 101.765625 -137.34765625 251.91015625 -110.971679688 487.1484375 c 1
-497.401367188 600.526367188 m 1
 -440.956054688 739.784179688 -412.538085938 855.995117188 -412.147460938 949.159179688 c 0
 -412.147460938 993.202148438 -427.967773438 1015.22363281 -459.608398438 1015.22363281 c 0
 -485.194335938 1015.22363281 -497.791992188 993.202148438 -497.401367188 949.159179688 c 0
 -496.571289062 891.541992188 -496.15625 833.680664062 -496.15625 775.575195312 c 0
 -496.15625 717.469726562 -496.571289062 659.120117188 -497.401367188 600.526367188 c 1
EndSplineSet
EndChar

StartChar: konVOW
Encoding: 57345 57345 19
Width: 80
GlyphClass: 2
Flags: MW
HStem: 0 80<26.6665 53.3335>
VStem: 0 80<26.6665 53.3335>
LayerCount: 2
Fore
SplineSet
40 80 m 0
 66.6669921875 80 80 66.6669921875 80 40 c 0
 80 13.3330078125 66.6669921875 0 40 0 c 0
 13.3330078125 -0 0 13.3330078125 0 40 c 0
 -0 66.6669921875 13.3330078125 80 40 80 c 0
EndSplineSet
EndChar

StartChar: konCONS
Encoding: 57346 57346 20
Width: 174
GlyphClass: 2
Flags: MW
HStem: 0 120<40 80>
VStem: 0 120<40 80>
LayerCount: 2
Fore
SplineSet
80 60 m 1
 60 80 l 1
 60 40 l 1
 40 60 l 1
 80 60 l 1
0 60 m 0
 0 100 20 120 60 120 c 0
 100 120 120 100 120 60 c 0
 120 20 100 0 60 0 c 0
 20 0 0 20 0 60 c 0
EndSplineSet
EndChar

StartChar: prostaCONS
Encoding: 57347 57347 21
Width: 125
GlyphClass: 2
Flags: MW
HStem: -0.0341797 900.034<0 120.11>
VStem: 0 119.685<-0.0341797 0.331055>
LayerCount: 2
Fore
SplineSet
0.1103515625 900 m 1
 120.110351562 900 l 1
 119.684570312 0.3310546875 l 1
 0 -0.0341796875 l 1
 0.1103515625 900 l 1
EndSplineSet
EndChar

StartChar: prostaVOW
Encoding: 57348 57348 22
Width: 80
GlyphClass: 2
Flags: MW
HStem: 0 900<0 80 0 80>
VStem: 0 80<0 900 0 900>
LayerCount: 2
Fore
SplineSet
0 900 m 1
 80 900 l 1
 80 0 l 1
 0 0 l 1
 0 900 l 1
EndSplineSet
EndChar

StartChar: stemK
Encoding: 57352 57352 24
Width: 120
VWidth: 0
GlyphClass: 2
Flags: MW
HStem: 0 21G<40 80>
VStem: 0 120<60 1648 1649 1669>
LayerCount: 2
Fore
SplineSet
80 60 m 1
 60 80 l 1
 60 40 l 1
 40 60 l 1
 80 60 l 1
80 1649 m 1
 60 1669 l 1
 60 1629 l 1
 40 1649 l 1
 80 1649 l 1
60 1709 m 0
 100 1709 120 1689 120 1649 c 0
 120 1648.83984375 120 1648.6796875 119.999023438 1648.51953125 c 0
 119.999023438 1648.34667969 119.999023438 1648.17382812 120 1648 c 2
 120 60 l 2
 120 20 100 0 60 0 c 0
 20 0 0 20 0 60 c 2
 0 1648 l 2
 -0 1648.17382812 0 1648.34667969 0.0009765625 1648.51953125 c 0
 0.0009765625 1648.6796875 0.0009765625 1648.83984375 0 1649 c 0
 0 1689 20 1709 60 1709 c 0
EndSplineSet
EndChar

StartChar: stemK.krt
Encoding: 57353 57353 25
Width: 120
VWidth: 0
GlyphClass: 2
Flags: MW
HStem: 0 21G<40 80>
VStem: 0 120<60 1235.28 1235.28 1235.28>
LayerCount: 2
Fore
SplineSet
80 60 m 1
 60 80 l 1
 60 40 l 1
 40 60 l 1
 80 60 l 1
79 1249 m 1
 59 1269 l 1
 59 1229 l 1
 39 1249 l 1
 79 1249 l 1
-1 1249 m 0
 -1 1289 19 1309 59 1309 c 0
 59.1591796875 1309 59.318359375 1309 59.4765625 1308.99902344 c 0
 59.650390625 1308.99902344 59.8251953125 1308.99902344 60 1309 c 0
 100 1309 120 1288.66699219 120 1248 c 2
 120 60 l 2
 120 20 100 0 60 0 c 0
 20 0 0 20 0 60 c 2
 -0 1235.28417969 l 2
 -0.6669921875 1239.58203125 -1 1244.15429688 -1 1249 c 0
EndSplineSet
EndChar

StartChar: stemG
Encoding: 57354 57354 26
Width: 120
VWidth: 0
GlyphClass: 2
Flags: MW
HStem: 0 960<40 80>
VStem: 0 120<60 899 900 920>
LayerCount: 2
Fore
SplineSet
80 60 m 1
 60 80 l 1
 60 40 l 1
 40 60 l 1
 80 60 l 1
80 900 m 1
 60 920 l 1
 60 880 l 1
 40 900 l 1
 80 900 l 1
60 960 m 0
 100 960 120 940 120 900 c 0
 120 899.83984375 120 899.6796875 119.999023438 899.51953125 c 0
 119.999023438 899.346679688 119.999023438 899.173828125 120 899 c 2
 120 60 l 2
 120 20 100 0 60 0 c 0
 20 0 0 20 0 60 c 2
 0 899 l 2
 -0 899.173828125 0 899.346679688 0.0009765625 899.51953125 c 0
 0.0009765625 899.6796875 0.0009765625 899.83984375 0 900 c 0
 0 940 20 960 60 960 c 0
EndSplineSet
EndChar

StartChar: stemG.krt
Encoding: 57355 57355 27
Width: 120
VWidth: 0
GlyphClass: 2
Flags: MW
HStem: 0 21G<40 80> 680 20G<39 59.0796 60 80>
VStem: 0 120<60 626.284 626.284 626.284>
LayerCount: 2
Fore
SplineSet
80 60 m 1
 60 80 l 1
 60 40 l 1
 40 60 l 1
 80 60 l 1
79 640 m 1
 59 660 l 1
 59 620 l 1
 39 640 l 1
 79 640 l 1
-1 640 m 0
 -1 680 19 700 59 700 c 0
 59.1591796875 700 59.318359375 700 59.4765625 699.999023438 c 0
 59.650390625 699.999023438 59.8251953125 699.999023438 60 700 c 0
 100 700 120 679.666992188 120 639 c 2
 120 60 l 2
 120 20 100 0 60 0 c 0
 20 0 0 20 0 60 c 2
 -0 626.284179688 l 2
 -0.6669921875 630.58203125 -1 635.154296875 -1 640 c 0
EndSplineSet
EndChar

StartChar: stemI
Encoding: 57356 57356 28
Width: 120
VWidth: 0
GlyphClass: 2
Flags: MW
HStem: 0 21G<40 80> 480 20G<39 59.0796 60 80>
VStem: 0 120<60 426.284 426.284 426.284>
LayerCount: 2
Fore
SplineSet
80 60 m 1
 60 80 l 1
 60 40 l 1
 40 60 l 1
 80 60 l 1
79 440 m 1
 59 460 l 1
 59 420 l 1
 39 440 l 1
 79 440 l 1
-1 440 m 0
 -1 480 19 500 59 500 c 0
 59.1591796875 500 59.318359375 500 59.4765625 499.999023438 c 0
 59.650390625 499.999023438 59.8251953125 499.999023438 60 500 c 0
 100 500 120 479.666992188 120 439 c 2
 120 60 l 2
 120 20 100 0 60 0 c 0
 20 0 0 20 0 60 c 2
 -0 426.284179688 l 2
 -0.6669921875 430.58203125 -1 435.154296875 -1 440 c 0
EndSplineSet
EndChar

StartChar: stemI.krt
Encoding: 57357 57357 29
Width: 121
VWidth: 0
GlyphClass: 2
Flags: MW
HStem: 0 342
VStem: 0 121<39.999 59.999 59.999 62.3325 279.577 280.999>
LayerCount: 2
Fore
SplineSet
80 60 m 1
 60 80 l 1
 60 40 l 1
 40 60 l 1
 80 60 l 1
80 282 m 1
 60 302 l 1
 60 262 l 1
 40 282 l 1
 80 282 l 1
0 282 m 0
 0 322 20 341.999023438 60 341.999023438 c 0
 60.1591796875 341.999023438 60.318359375 341.999023438 60.4765625 341.998046875 c 0
 60.650390625 341.998046875 60.8251953125 341.998046875 61 341.999023438 c 0
 101 341.999023438 121 321.666015625 121 280.999023438 c 2
 121 59.9990234375 l 2
 121 19.9990234375 101 -0.0009765625 61 -0.0009765625 c 0
 60.830078125 -0.0009765625 60.6611328125 -0.0009765625 60.4921875 0 c 0
 60.328125 0 60.1640625 -0 60 -0.0009765625 c 0
 20 -0.0009765625 0 19.9990234375 0 59.9990234375 c 0
 -0 64.666015625 0.3330078125 69.0830078125 1 73.25 c 2
 1 268.284179688 l 2
 0.3330078125 272.58203125 0 277.154296875 0 282 c 0
EndSplineSet
EndChar

StartChar: stemKRT
Encoding: 57358 57358 30
Width: 120
VWidth: 0
GlyphClass: 2
Flags: MW
HStem: 0 240
VStem: -1 121<39.999 59.999 59.999 62.3325 177.577 178.999 39.999 200>
LayerCount: 2
Fore
SplineSet
79 180 m 1
 59 200 l 1
 59 160 l 1
 39 180 l 1
 79 180 l 1
79 60 m 1
 59 80 l 1
 59 40 l 1
 39 60 l 1
 79 60 l 1
-1 180 m 0
 -1 220 19 239.999023438 59 239.999023438 c 0
 59.1591796875 239.999023438 59.318359375 239.999023438 59.4765625 239.998046875 c 0
 59.650390625 239.998046875 59.8251953125 239.998046875 60 239.999023438 c 0
 100 239.999023438 120 219.666015625 120 178.999023438 c 2
 120 59.9990234375 l 2
 120 19.9990234375 100 -0.0009765625 60 -0.0009765625 c 0
 59.830078125 -0.0009765625 59.6611328125 -0.0009765625 59.4921875 0 c 0
 59.328125 0 59.1640625 -0 59 -0.0009765625 c 0
 19 -0.0009765625 -1 19.9990234375 -1 59.9990234375 c 0
 -1 64.666015625 -0.6669921875 69.0830078125 0 73.25 c 2
 -0 166.284179688 l 2
 -0.6669921875 170.58203125 -1 175.154296875 -1 180 c 0
EndSplineSet
EndChar

StartChar: dolCZbrzh
Encoding: 57360 57360 32
Width: 468
VWidth: 3070
GlyphClass: 2
Flags: MW
HStem: 146 120.499
VStem: -345.03 130.262 -0.224609 120<473 476.999 476.999 677 677 677 816.999 822.205>
LayerCount: 2
Fore
SplineSet
39.775390625 761 m 1
 59.775390625 741 l 1
 59.775390625 781 l 1
 79.775390625 761 l 1
 39.775390625 761 l 1
39.775390625 840 m 1
 59.775390625 820 l 1
 59.775390625 860 l 1
 79.775390625 840 l 1
 39.775390625 840 l 1
-0.224609375 677 m 1
 -56.8916015625 625.666992188 -105.891601562 569.333007812 -147.224609375 508 c 0
 -192.25390625 439.893554688 -214.768554688 386.192382812 -214.768554688 346.896484375 c 0
 -214.768554688 293.298828125 -172.8828125 266.5 -89.1123046875 266.5 c 0
 -88.8125 266.5 -88.51171875 266.5 -88.2109375 266.500976562 c 0
 -29.5537109375 266.833984375 -0.224609375 335.666992188 -0.224609375 473 c 2
 -0.224609375 677 l 1
-0.224609375 816.999023438 m 1
 -0.224609375 827.41015625 -0.2265625 834.075195312 -0.2314453125 836.994140625 c 0
 -0.236328125 839.913085938 -0.2314453125 842.248046875 -0.2158203125 843.999023438 c 0
 -0.2216796875 881.33203125 19.775390625 899.999023438 59.775390625 899.999023438 c 0
 99.775390625 899.999023438 119.775390625 881.33203125 119.775390625 843.999023438 c 2
 119.775390625 476.999023438 l 2
 119.775390625 256.330078125 50.857421875 145.99609375 -86.9775390625 145.99609375 c 0
 -87.392578125 145.99609375 -87.80859375 145.997070312 -88.224609375 145.999023438 c 0
 -259.428710938 146.397460938 -345.030273438 196.73046875 -345.030273438 296.997070312 c 0
 -345.030273438 364.619140625 -306.094726562 454.953125 -228.224609375 567.999023438 c 0
 -163.557617188 659.999023438 -87.5576171875 742.999023438 -0.224609375 816.999023438 c 1
EndSplineSet
EndChar

StartChar: dolSZ.brzh
Encoding: 57361 57361 33
Width: 481
VWidth: 3070
GlyphClass: 2
Flags: MW
HStem: -862 119<-146.658 -75.9912 -146.658 -36.3247>
VStem: -338.996 127.004 0.00878906 120<-537 -103 -103 -103 37 64>
LayerCount: 2
Fore
SplineSet
40.0087890625 61 m 1
 60.0087890625 41 l 1
 60.0087890625 81 l 1
 80.0087890625 61 l 1
 40.0087890625 61 l 1
40.0087890625 -19 m 1
 60.0087890625 -39 l 1
 60.0087890625 1 l 1
 80.0087890625 -19 l 1
 40.0087890625 -19 l 1
0.0087890625 -103 m 1
 -141.32421875 -227 -211.991210938 -371.666992188 -211.991210938 -537 c 0
 -211.991210938 -674.333007812 -179.32421875 -743 -113.991210938 -743 c 0
 -37.9912109375 -743 0.0087890625 -674.333007812 0.0087890625 -537 c 2
 0.0087890625 -103 l 1
0.0087890625 37 m 1
 0.0087890625 64 l 2
 0.0087890625 102 20.0087890625 121 60.0087890625 121 c 0
 100.008789062 121 120.008789062 102 120.008789062 64 c 2
 120.008789062 -537 l 2
 120.008789062 -753.666992188 41.841796875 -862 -114.491210938 -862 c 0
 -264.161132812 -862 -338.99609375 -754.951171875 -338.99609375 -540.854492188 c 0
 -338.99609375 -365.573242188 -225.994140625 -172.955078125 0.0087890625 37 c 1
EndSplineSet
EndChar

StartChar: dolDRZ.brzh
Encoding: 57362 57362 34
Width: 581
VWidth: 3070
GlyphClass: 2
Flags: MW
HStem: -102.569 141.845
VStem: -280.443 107.331 0.40625 119.594
LayerCount: 2
Fore
SplineSet
80 60 m 1
 60 80 l 1
 60 40 l 1
 40 60 l 1
 80 60 l 1
80 -8 m 1
 60 12 l 1
 60 -28 l 1
 40 -8 l 1
 80 -8 l 1
-173.112304688 -225.133789062 m 0
 -173.112304688 -271.399414062 -142.041015625 -301.381835938 -79.8984375 -315.0859375 c 0
 -49.4296875 -321.8046875 -28.49609375 -316.303710938 -17.09765625 -298.58203125 c 0
 -5.69921875 -280.860351562 0.1357421875 -252.934570312 0.40625 -214.8046875 c 2
 0.40625 -102.569335938 l 1
 -110.453125 -135.620117188 l 1
 -152.225585938 -162.244140625 -173.112304688 -192.08203125 -173.112304688 -225.133789062 c 0
0 60.001953125 m 0
 0 100.001953125 20.0009765625 120 60.0009765625 120 c 0
 100.000976562 120 120.000976562 100 120.000976562 60 c 2
 120.000976562 -98 l 2
 120.000976562 -211.853515625 111.122070312 -287.7421875 93.3642578125 -325.666015625 c 0
 65.1220703125 -387.22265625 6.134765625 -417.978515625 -83.5966796875 -417.932617188 c 0
 -143.865234375 -417.978515625 -191.455078125 -399.397460938 -226.3671875 -362.188476562 c 0
 -261.279296875 -324.979492188 -279.279296875 -280.979492188 -280.3671875 -230.188476562 c 0
 -280.416992188 -227.841796875 -280.442382812 -225.522460938 -280.442382812 -223.229492188 c 0
 -280.442382812 -175.89453125 -269.7265625 -140.020507812 -248.295898438 -115.608398438 c 0
 -225.827148438 -90.013671875 -193.420898438 -63.0595703125 -151.077148438 -34.7451171875 c 0
 -136.161132812 -27.4169921875 -113.5859375 -16.2939453125 -83.3515625 -1.3759765625 c 0
 -53.1171875 13.5419921875 -25.1982421875 27.0927734375 0.40625 39.2763671875 c 1
 0.40625 51.0693359375 l 2
 0.1357421875 53.935546875 0 56.9130859375 0 60.001953125 c 0
EndSplineSet
EndChar

StartChar: gorP.brzh
Encoding: 57372 57372 35
Width: 461
VWidth: 3070
GlyphClass: 2
Flags: MW
HStem: 779 21G<40 80> 1643 119<196 266.667>
VStem: 0 120 332 127.004
LayerCount: 2
Fore
SplineSet
80 919 m 1
 60 939 l 1
 60 899 l 1
 40 919 l 1
 80 919 l 1
80 839 m 1
 60 859 l 1
 60 819 l 1
 40 839 l 1
 80 839 l 1
120 1003 m 1
 261.333007812 1127 332 1271.66699219 332 1437 c 0
 332 1574.33300781 299.333007812 1643 234 1643 c 0
 158 1643 120 1574.33300781 120 1437 c 2
 120 1003 l 1
60 779 m 0
 20 779 -0.0009765625 798 -0.0009765625 836 c 2
 -0.0009765625 1437 l 2
 -0.0009765625 1653.66699219 78.166015625 1762 234.499023438 1762 c 0
 384.168945312 1762 459.00390625 1654.95117188 459.00390625 1440.85449219 c 0
 459.00390625 1265.57324219 346.002929688 1072.95507812 120 863 c 1
 120 836 l 2
 120 798 100 779 60 779 c 0
EndSplineSet
EndChar

StartChar: gorST.brzh
Encoding: 57374 57374 36
Width: 528
VWidth: 3070
GlyphClass: 2
Flags: MW
HStem: 661.175 115.255
VStem: -40.9876 119.449 58.4873 124.548 383.084 130.016
LayerCount: 2
Fore
SplineSet
70.3779296875 52.3193359375 m 1x90
 63.0576171875 79.6396484375 l 1
 43.0576171875 44.9990234375 l 1
 35.7373046875 72.3193359375 l 1
 70.3779296875 52.3193359375 l 1x90
136.806640625 -175.741210938 m 1
 131.89453125 -147.88671875 l 1
 108.952148438 -180.65234375 l 1
 104.040039062 -152.797851562 l 1
 136.806640625 -175.741210938 l 1
99.07421875 124.665039062 m 1
 222.575195312 184.61328125 305.6015625 275.294921875 348.15625 396.712890625 c 0
 371.44140625 463.149414062 383.083984375 515.701171875 383.083984375 554.369140625 c 0
 383.083984375 586.370117188 375.110351562 608.861328125 359.163085938 621.84375 c 0
 326.793945312 648.063476562 295.953125 661.173828125 266.639648438 661.173828125 c 0
 220.01171875 661.173828125 177.249023438 628.002929688 138.3515625 561.661132812 c 0
 98.4248046875 493.563476562 78.4609375 410.5234375 78.4609375 312.541992188 c 0xd0
 78.4609375 255.059570312 85.33203125 192.43359375 99.07421875 124.665039062 c 1
179.491210938 -140.931640625 m 0
 181.853515625 -149.059570312 183.030273438 -156.767578125 183.030273438 -164.052734375 c 0
 183.030273438 -189.323242188 168.8203125 -209.5234375 140.399414062 -224.653320312 c 0
 133.572265625 -226.390625 127.05859375 -227.258789062 120.859375 -227.258789062 c 0
 94.3193359375 -227.258789062 73.52734375 -211.33984375 58.4833984375 -179.501953125 c 0xb0
 -7.8330078125 -12.228515625 -40.9912109375 141.84765625 -40.9912109375 282.7265625 c 0
 -40.9912109375 406.912109375 -15.2255859375 520.842773438 36.3056640625 624.518554688 c 1
 101.577148438 725.791015625 176.005859375 776.426757812 259.590820312 776.426757812 c 0
 309.19921875 776.426757812 362.033203125 758.58984375 418.092773438 722.916992188 c 0
 481.4296875 682.583007812 513.09765625 623.62890625 513.09765625 546.0546875 c 0
 513.09765625 486.95703125 494.71875 417.053710938 457.9609375 336.34375 c 0
 388.202148438 183.171875 275.547851562 71.056640625 119.998046875 -0.001953125 c 1
 148.881835938 -70.943359375 168.712890625 -117.919921875 179.491210938 -140.931640625 c 0
EndSplineSet
EndChar

StartChar: gorPS.brzh
Encoding: 57375 57375 37
Width: 600
VWidth: 3070
GlyphClass: 2
Flags: MW
HStem: 0 21G<40 80> 988 133
VStem: 0 120<55 82 36.6665 806> 456.006 127.996
LayerCount: 2
Fore
SplineSet
80 140 m 1
 60 160 l 1
 60 120 l 1
 40 140 l 1
 80 140 l 1
80 60 m 1
 60 80 l 1
 60 40 l 1
 40 60 l 1
 80 60 l 1
120 225 m 1
 344.00390625 347.0625 456.005859375 541.44921875 456.005859375 808.161132812 c 0
 456.005859375 928.0546875 400.670898438 988.000976562 290 988.000976562 c 0
 178.666992188 988.000976562 123 927.333984375 123 806.000976562 c 0
 122.333007812 591.333984375 121.333007812 397.666992188 120 225 c 1
120 82 m 1
 120 55 l 2
 120 18.3330078125 100 0 60 0 c 0
 20 -0 0 18.3330078125 0 55 c 2
 0 806 l 2
 0 1016 97.1669921875 1121 291.5 1121 c 0
 486.500976562 1121 584.001953125 1015.62988281 584.001953125 804.889648438 c 0
 584.001953125 477.962890625 429.334960938 237 120 82 c 1
EndSplineSet
EndChar

StartChar: gorBbrzh
Encoding: 57376 57376 38
Width: 468
VWidth: 3070
GlyphClass: 2
Flags: MW
HStem: 0 21G 633.5 120.503
VStem: 0 120<77.7954 83.001 223 423.001 423.001 427> 334.544 130.262
LayerCount: 2
Fore
SplineSet
80 60 m 1
 60 80 l 1
 60 40 l 1
 40 60 l 1
 80 60 l 1
80 139 m 1
 60 159 l 1
 60 119 l 1
 40 139 l 1
 80 139 l 1
120 223 m 1
 176.666992188 274.333007812 225.666992188 330.666992188 267 392 c 0
 312.029296875 460.106445312 334.543945312 513.807617188 334.543945312 553.103515625 c 0
 334.543945312 606.701171875 292.658203125 633.5 208.887695312 633.5 c 0
 208.587890625 633.5 208.287109375 633.5 207.986328125 633.499023438 c 0
 149.329101562 633.166015625 120 564.333007812 120 427 c 2
 120 223 l 1
120 83.0009765625 m 1
 120 72.58984375 120.001953125 65.9248046875 120.006835938 63.005859375 c 0
 120.01171875 60.0869140625 120.006835938 57.751953125 119.991210938 56.0009765625 c 0
 119.997070312 18.66796875 100 0.0009765625 60 0.0009765625 c 0
 20 0.0009765625 0 18.66796875 0 56.0009765625 c 2
 0 423.000976562 l 2
 0 643.669921875 68.91796875 754.00390625 206.752929688 754.00390625 c 0
 207.16796875 754.00390625 207.583984375 754.002929688 208 754.000976562 c 0
 379.204101562 753.602539062 464.805664062 703.26953125 464.805664062 603.002929688 c 0
 464.805664062 535.380859375 425.870117188 445.046875 348 332.000976562 c 0
 283.333007812 240.000976562 207.333007812 157.000976562 120 83.0009765625 c 1
EndSplineSet
EndChar

StartChar: gorZD.brzhd
Encoding: 57377 57377 39
Width: 430
GlyphClass: 2
Flags: MW
HStem: 453 117<34 93.3374>
VStem: -149 120<307 380 307 420.667> 149.013 131.987
LayerCount: 2
Fore
SplineSet
212 -79 m 1
 192 -59 l 1
 192 -99 l 1
 172 -79 l 1
 212 -79 l 1
80 60 m 1
 60 80 l 1
 60 40 l 1
 40 60 l 1
 80 60 l 1
73 141 m 1
 123.674804688 191.017578125 149.012695312 254.677734375 149.012695312 331.981445312 c 0
 149.012695312 412.66015625 121.174804688 453 65.5 453 c 0
 2.5 453 -29 416.5 -29 343.5 c 0
 -29 270.5 5 203 73 141 c 1
250.0859375 -61.06640625 m 0
 259.606445312 -90.603515625 249.266601562 -115.922851562 219.068359375 -137.024414062 c 0
 207.985351562 -144.768554688 194.967773438 -146.034179688 180.015625 -140.821289062 c 0
 165.063476562 -135.608398438 156.115234375 -131.625 153.170898438 -128.870117188 c 0
 150.2265625 -126.115234375 146.032226562 -122.80078125 140.587890625 -118.92578125 c 0
 121.787109375 -105.545898438 96.560546875 -80.1083984375 64.908203125 -42.61328125 c 0
 33.255859375 -5.1181640625 16.5712890625 14.435546875 14.8544921875 16.0478515625 c 0
 13.1376953125 17.66015625 11.13671875 20.318359375 8.8515625 24.0234375 c 0
 -96.3828125 151.205078125 -149 258.530273438 -149 346 c 0
 -149 495.333007812 -77.3330078125 570 66 570 c 0
 209.333007812 570 281 493.333007812 281 340 c 0
 281 260.666992188 237.666992188 166.666992188 151 58 c 1
 165.666992188 31.3330078125 181.71875 10.740234375 199.155273438 -3.77734375 c 0
 221.545898438 -22.419921875 235.028320312 -34.0283203125 239.603515625 -38.603515625 c 0
 244.178710938 -43.1787109375 247.672851562 -50.666015625 250.0859375 -61.06640625 c 0
EndSplineSet
EndChar

StartChar: dolDv.brzhd
Encoding: 57378 57378 40
Width: 394
GlyphClass: 2
Flags: MW
HStem: -339 120 310 132
VStem: -0.75 119.086 265.5 126.501
LayerCount: 2
Fore
SplineSet
80 383 m 1
 60 403 l 1
 60 363 l 1
 40 383 l 1
 80 383 l 1
80 60 m 1
 60 80 l 1
 60 40 l 1
 40 60 l 1
 80 60 l 1
120 60 m 2
 118.5 -17 l 2
 118.5 -151.666992188 144.666992188 -219 197 -219 c 0
 242.666992188 -219 265.5 -130.833007812 265.5 45.5 c 0
 265.5 221.833007812 242.75390625 310 197.26171875 310 c 0
 151.76953125 310 125.982421875 228.104492188 119.901367188 64.314453125 c 0
 119.966796875 62.9013671875 120 61.462890625 120 60 c 2
60 443 m 0
 100 443 119.998046875 422.999023438 119.998046875 382.999023438 c 0
 119.998046875 376.747070312 119.443359375 370.951171875 118.333984375 365.611328125 c 2
 118.01953125 326.666015625 l 1
 118.9375 403.5546875 145.430664062 441.999023438 197.499023438 441.999023438 c 0
 327.166992188 441.999023438 392.000976562 312.497070312 392.000976562 53.494140625 c 0
 392.000976562 -208.168945312 326.333984375 -339.000976562 195 -339.000976562 c 0
 64 -339.000976562 -1.6669921875 -232.000976562 -2 -18.0009765625 c 0
 -1.6669921875 151.33203125 -1.5 257.647460938 -1.5 300.944335938 c 0
 -1.5 344.241210938 -1.25 368.345703125 -0.75 373.258789062 c 0
 -0.25 378.171875 0 381.418945312 0 383 c 0
 0 423 20 443 60 443 c 0
EndSplineSet
EndChar

StartChar: dolMv.brzhd
Encoding: 57379 57379 41
Width: 359
GlyphClass: 2
Flags: MW
HStem: -227 120 141.616 109.143
VStem: -4 120<200.999 316.859 316.859 316.859> 240 115<-24.2593 58.6128>
LayerCount: 2
Fore
SplineSet
80 60 m 1
 60 80 l 1
 60 40 l 1
 40 60 l 1
 80 60 l 1
75.46875 327.01953125 m 1
 55.46875 347.01953125 l 1
 55.46875 307.01953125 l 1
 35.46875 327.01953125 l 1
 75.46875 327.01953125 l 1
55.46875 387.01953125 m 0
 95.46875 387.01953125 115.46875 367.01171875 115.46875 326.999023438 c 1
 116 326.999023438 l 1
 116 200.999023438 l 1
 116 234.33203125 136.666992188 250.91796875 178 250.756835938 c 0
 296 250.91796875 355 171.33203125 355 11.9990234375 c 0
 355 -147.333984375 295.166992188 -227.000976562 175.5 -227.000976562 c 0
 55.8330078125 -227.000976562 -4 -105.333984375 -4 137.999023438 c 2
 -4 316.859375 l 2
 -4.3544921875 320.100585938 -4.53125 323.487304688 -4.53125 327.01953125 c 0
 -4.53125 367.01953125 15.46875 387.01953125 55.46875 387.01953125 c 0
116 -35.0009765625 m 0
 116 -83.0009765625 136.666992188 -107.000976562 178 -107.000976562 c 0
 219.333007812 -107.000976562 240 -65.6298828125 240 17.111328125 c 0
 240 100.114257812 219.245117188 141.615234375 177.735351562 141.615234375 c 0
 137.243164062 141.615234375 116.665039062 82.7431640625 116 -35.0009765625 c 0
EndSplineSet
EndChar

StartChar: koloS
Encoding: 57440 57440 43
Width: 583
VWidth: 0
GlyphClass: 2
Flags: MW
HStem: 1.13509 124.361 549 126.55
VStem: 0 123.506 458.082 124.385
LayerCount: 2
Fore
SplineSet
295 612 m 1
 275 632 l 1
 275 592 l 1
 255 612 l 1
 295 612 l 1
330 612 m 1
 310 632 l 1
 310 592 l 1
 290 612 l 1
 330 612 l 1
145 527 m 1
 125 547 l 1
 125 507 l 1
 105 527 l 1
 145 527 l 1
510 200 m 1
 490 220 l 1
 490 180 l 1
 470 200 l 1
 510 200 l 1
107 463 m 1
 87 483 l 1
 87 443 l 1
 67 463 l 1
 107 463 l 1
542 331 m 1
 522 351 l 1
 522 311 l 1
 502 331 l 1
 542 331 l 1
290.633789062 61.4462890625 m 1
 270.633789062 81.4462890625 l 1
 270.633789062 41.4462890625 l 1
 250.633789062 61.4462890625 l 1
 290.633789062 61.4462890625 l 1
331 62 m 1
 311 82 l 1
 311 42 l 1
 291 62 l 1
 331 62 l 1
80 331 m 1
 60 351 l 1
 60 311 l 1
 40 331 l 1
 80 331 l 1
474 147 m 1
 454 167 l 1
 454 127 l 1
 434 147 l 1
 474 147 l 1
165 473 m 0
 137.337890625 424.590820312 123.506835938 377.517578125 123.506835938 331.78125 c 0
 123.506835938 284.420898438 138.337890625 238.494140625 168 194 c 0
 198.446289062 148.331054688 238.913085938 125.49609375 289.401367188 125.49609375 c 0
 289.767578125 125.49609375 290.133789062 125.497070312 290.500976562 125.499023438 c 0
 341.500976562 125.83203125 382.500976562 149.83203125 413.500976562 197.499023438 c 0
 443.22265625 243.200195312 458.083007812 290.280273438 458.083007812 338.739257812 c 0
 458.083007812 340.823242188 458.055664062 342.91015625 458.000976562 344.999023438 c 0
 456.66796875 395.666015625 442.66796875 442.333007812 416.000976562 485 c 0
 389.333984375 527.666992188 348.166992188 549 292.5 549 c 0
 236.833007812 549 194.333007812 523.666992188 165 473 c 0
100.346679688 588.369140625 m 0
 165.26953125 646.489257812 229.34765625 675.55078125 292.576171875 675.55078125 c 0
 355.805664062 675.55078125 418.1875 646.490234375 479.72265625 588.370117188 c 0
 548.220703125 523.830078125 582.469726562 442.169921875 582.469726562 343.388671875 c 0
 582.469726562 235.336914062 553.96875 154.541015625 496.967773438 101.000976562 c 0
 495.21484375 99.361328125 492.896484375 97.279296875 490.012695312 94.75390625 c 0
 487.12890625 92.228515625 483.698242188 89.1875 479.720703125 85.6298828125 c 0
 417.41015625 29.2998046875 354.640625 1.134765625 291.412109375 1.134765625 c 0
 228.182617188 1.134765625 164.494140625 29.2998046875 100.346679688 85.6298828125 c 0
 33.44921875 144.54296875 0 226.333007812 0 331 c 0
 -0 331.102539062 -0 331.205078125 0 331.307617188 c 0
 0 331.538085938 0 331.768554688 0 331.999023438 c 0
 0 437.33203125 27 516.999023438 81 570.999023438 c 0
 83.396484375 573.395507812 86.2275390625 575.99609375 89.494140625 578.80078125 c 0
 92.7607421875 581.60546875 96.3779296875 584.794921875 100.346679688 588.369140625 c 0
EndSplineSet
EndChar

StartChar: koloZ
Encoding: 57441 57441 44
Width: 449
VWidth: 300
GlyphClass: 2
Flags: MW
HStem: 0.0488281 127.951 355 126
VStem: 0 115<221.333 245.667 221.333 275.82> 331 118.371
LayerCount: 2
Fore
SplineSet
200 412 m 1
 180 432 l 1
 180 392 l 1
 160 412 l 1
 200 412 l 1
281 414 m 1
 261 434 l 1
 261 394 l 1
 241 414 l 1
 281 414 l 1
207 68 m 1
 187 88 l 1
 187 48 l 1
 167 68 l 1
 207 68 l 1
287.793945312 69.837890625 m 1
 267.793945312 89.837890625 l 1
 267.793945312 49.837890625 l 1
 247.793945312 69.837890625 l 1
 287.793945312 69.837890625 l 1
72 416 m 0
 120 459.333007812 170.666992188 481 224 481 c 0
 277.333007812 481 321 465.333007812 355 434 c 0
 417.396484375 376.497070312 448.853515625 311.497070312 449.37109375 239 c 0
 449.124023438 205.666992188 441.333984375 172 426.000976562 138 c 0
 402.41796875 85.70703125 360.682617188 44.986328125 300.794921875 15.837890625 c 0
 278.932617188 5.279296875 253.158203125 0.0166015625 223.47265625 0.048828125 c 0
 174.032226562 -0.005859375 131.259765625 15.138671875 95.15625 45.482421875 c 0
 31.71875 98.7998046875 0 163.048828125 0 238.229492188 c 0
 0 313.41015625 24 372.666992188 72 416 c 0
146.5 162.5 m 0
 167.5 139.5 194.333007812 128 227 128 c 0
 259.666992188 128 285.166992188 139 303.5 161 c 0
 321.833007812 183 331 205.666992188 331 229 c 0
 331 252.333007812 322 279.166015625 304 309.499023438 c 0
 286 339.83203125 260.666992188 354.999023438 228 354.999023438 c 0
 195.333007812 354.999023438 168.333007812 340.83203125 147 312.499023438 c 0
 125.666992188 284.166015625 115 257.833007812 115 233.5 c 0
 115 209.166992188 125.5 185.5 146.5 162.5 c 0
EndSplineSet
EndChar

StartChar: koloL
Encoding: 57442 57442 45
Width: 266
GlyphClass: 2
Flags: MW
HStem: -0.545731 21G 271.801 20G
VStem: 0 266.4
LayerCount: 2
Fore
SplineSet
128 68 m 1
 108 88 l 1
 108 48 l 1
 88 68 l 1
 128 68 l 1
178 69 m 1
 158 89 l 1
 158 49 l 1
 138 69 l 1
 178 69 l 1
125 221 m 1
 105 241 l 1
 105 201 l 1
 85 221 l 1
 125 221 l 1
179 221 m 1
 159 241 l 1
 159 201 l 1
 139 221 l 1
 179 221 l 1
76.693359375 14.1103515625 m 0
 25.564453125 38.4990234375 0.0009765625 87.9951171875 0.0009765625 162.599609375 c 0
 0.0009765625 197 14.267578125 227.133789062 42.80078125 253.000976562 c 0
 71.333984375 278.868164062 101.466796875 291.801757812 133.200195312 291.801757812 c 0
 164.93359375 291.801757812 195.06640625 278.6015625 223.599609375 252.201171875 c 0
 252.1328125 225.80078125 266.399414062 195.80078125 266.399414062 162.201171875 c 0
 266.399414062 88.5517578125 240.67578125 39.509765625 189.229492188 15.07421875 c 0
 169.954101562 4.6611328125 150.791015625 -0.544921875 131.740234375 -0.544921875 c 0
 113.286132812 -0.544921875 94.9375 4.33984375 76.693359375 14.1103515625 c 0
EndSplineSet
EndChar

StartChar: luD1
Encoding: 57445 57445 46
Width: 360
VWidth: 0
GlyphClass: 2
Flags: MW
HStem: 0 21G<280 320> 566 20G
VStem: 240 120<40.0039 151.67>
LayerCount: 2
Fore
SplineSet
80 526 m 1
 60 546 l 1
 60 506 l 1
 40 526 l 1
 80 526 l 1
320 60 m 1
 300 80 l 1
 300 40 l 1
 280 60 l 1
 320 60 l 1
300 0 m 0
 260 0 240 20.00390625 240 60.00390625 c 0
 240 243.336914062 169.333007812 380.669921875 28 472.002929688 c 1
 28.201171875 472.350585938 l 1
 9.400390625 481.5703125 0 499.454101562 0 526.001953125 c 0
 0 566.001953125 20 586.001953125 60 586.001953125 c 0
 71.654296875 586.001953125 81.7490234375 583.922851562 90.28515625 579.764648438 c 1
 91 581.000976562 l 1
 270.333007812 462.333984375 360 288.666992188 360 60 c 0
 360 20 340 0 300 0 c 0
EndSplineSet
EndChar

StartChar: luD2
Encoding: 57446 57446 47
Width: 360
VWidth: 0
GlyphClass: 2
Flags: MW
HStem: 0 21G 566 20G<40 80>
VStem: 0 120<434.33 545.996 434.33 546>
LayerCount: 2
Fore
SplineSet
40 526 m 1
 60 506 l 1
 60 546 l 1
 80 526 l 1
 40 526 l 1
280 60 m 1
 300 40 l 1
 300 80 l 1
 320 60 l 1
 280 60 l 1
60 586 m 0
 100 586 120 565.99609375 120 525.99609375 c 0
 120 342.663085938 190.666992188 205.330078125 332 113.997070312 c 1
 331.798828125 113.649414062 l 1
 350.599609375 104.4296875 360 86.5458984375 360 59.998046875 c 0
 360 19.998046875 340 -0.001953125 300 -0.001953125 c 0
 288.345703125 -0.001953125 278.250976562 2.0771484375 269.71484375 6.2353515625 c 1
 269 4.9990234375 l 1
 89.6669921875 123.666015625 0 297.333007812 0 526 c 0
 0 566 20 586 60 586 c 0
EndSplineSet
EndChar

StartChar: luD3
Encoding: 57447 57447 48
Width: 360
GlyphClass: 2
Flags: MW
HStem: 0 21G<40 80> 561 21G
VStem: 0 120<40 151.625 40 174.333>
LayerCount: 2
Fore
SplineSet
80 60 m 1
 60 80 l 1
 60 40 l 1
 40 60 l 1
 80 60 l 1
321 526 m 1
 301 546 l 1
 301 506 l 1
 281 526 l 1
 321 526 l 1
60 0 m 0
 20 0 0 19.9990234375 0 59.9990234375 c 0
 0 288.666015625 89.6669921875 462.333007812 269 581 c 1
 269.938476562 579.376953125 l 1
 278.63671875 583.791992188 288.990234375 586 301 586 c 0
 341 586 361 566 361 526 c 0
 361 498.94140625 351.268554688 480.899414062 331.805664062 471.874023438 c 0
 190.6015625 380.540039062 120 243.249023438 120 60 c 0
 120 20 100 0 60 0 c 0
EndSplineSet
EndChar

StartChar: luD4
Encoding: 57448 57448 49
Width: 360
GlyphClass: 2
Flags: MW
HStem: 5 581<92 321>
VStem: 241 120<434.375 546>
LayerCount: 2
Fore
SplineSet
40 60 m 1
 60 40 l 1
 60 80 l 1
 80 60 l 1
 40 60 l 1
281 526 m 1
 301 506 l 1
 301 546 l 1
 321 526 l 1
 281 526 l 1
301 586 m 0
 341 586 361 566.000976562 361 526.000976562 c 0
 361 297.333984375 271.333007812 123.666992188 92 5 c 1
 91.0615234375 6.623046875 l 1
 82.36328125 2.2080078125 72.009765625 0 60 0 c 0
 20 0 0 20 0 60 c 0
 0 87.05859375 9.7314453125 105.100585938 29.1943359375 114.125976562 c 0
 170.3984375 205.459960938 241 342.750976562 241 526 c 0
 241 566 261 586 301 586 c 0
EndSplineSet
EndChar

StartChar: luT1
Encoding: 57450 57450 50
Width: 426
VWidth: 0
GlyphClass: 2
Flags: MW
HStem: 0 897.534
VStem: 305.563 120
LayerCount: 2
Fore
SplineSet
385.563476562 60 m 1
 365.563476562 80 l 1
 365.563476562 40 l 1
 345.563476562 60 l 1
 385.563476562 60 l 1
79.8837890625 826.999023438 m 1
 72.5634765625 854.3203125 l 1
 52.5634765625 819.678710938 l 1
 45.2431640625 846.999023438 l 1
 79.8837890625 826.999023438 l 1
365.563476562 0 m 0
 325.563476562 0 305.561523438 20 305.561523438 60 c 2
 305.561523438 80 l 2
 306.252929688 444.549804688 215.252929688 679.5625 32.5615234375 785.038085938 c 1
 32.5615234375 785.038085938 l 1
 10.578125 797.705078125 -0.4140625 813.326171875 -0.4140625 831.901367188 c 0
 -0.4140625 842.618164062 3.244140625 854.317382812 10.5615234375 867 c 0
 22.3056640625 887.356445312 37.8759765625 897.534179688 57.2724609375 897.534179688 c 0
 70.900390625 897.534179688 86.4169921875 892.509765625 103.822265625 882.461914062 c 0
 318.31640625 754.154296875 425.563476562 486.666992188 425.563476562 80 c 2
 425.563476562 60 l 1
 425.563476562 60 l 1
 425.563476562 20 405.563476562 0 365.563476562 0 c 0
EndSplineSet
EndChar

StartChar: luT2
Encoding: 57451 57451 51
Width: 426
VWidth: 0
GlyphClass: 2
Flags: MW
HStem: 2.79503 897.402
VStem: 1.00098 120
LayerCount: 2
Fore
SplineSet
346.680664062 73.1982421875 m 1
 354.000976562 45.876953125 l 1
 374.000976562 80.5185546875 l 1
 381.321289062 53.1982421875 l 1
 346.680664062 73.1982421875 l 1
41.0009765625 840.197265625 m 1
 61.0009765625 820.197265625 l 1
 61.0009765625 860.197265625 l 1
 81.0009765625 840.197265625 l 1
 41.0009765625 840.197265625 l 1
61.0009765625 900.197265625 m 0
 101.000976562 900.197265625 121 880.198242188 121 840.198242188 c 2
 121 820.198242188 l 2
 120.331054688 467.787109375 207.290039062 235.107421875 381.875976562 122.159179688 c 0
 384.100585938 120.719726562 386.215820312 119.459960938 388.220703125 118.379882812 c 0
 413.977539062 104.502929688 426.85546875 87.5673828125 426.85546875 67.57421875 c 0
 426.85546875 57.19921875 423.387695312 46.0009765625 416.452148438 33.9794921875 c 0
 404.458007812 13.189453125 388.642578125 2.794921875 369.006835938 2.794921875 c 0
 355.416015625 2.794921875 339.994140625 7.775390625 322.7421875 17.7353515625 c 0
 108.248046875 146.04296875 1.0009765625 413.530273438 1.0009765625 820.197265625 c 2
 1.0009765625 840.197265625 l 2
 1.0009765625 880.197265625 21.0009765625 900.197265625 61.0009765625 900.197265625 c 0
EndSplineSet
EndChar

StartChar: luT3
Encoding: 57452 57452 52
Width: 425
GlyphClass: 2
Flags: MW
HStem: 0 898.066
VStem: -0.0292969 120
LayerCount: 2
Fore
SplineSet
384.970703125 837 m 1
 364.970703125 857 l 1
 364.970703125 817 l 1
 344.970703125 837 l 1
 384.970703125 837 l 1
79.970703125 60 m 1
 59.970703125 80 l 1
 59.970703125 40 l 1
 39.970703125 60 l 1
 79.970703125 60 l 1
59.970703125 0 m 0
 19.970703125 0 -0.0322265625 19.9990234375 -0.0322265625 59.9990234375 c 0
 -0.0322265625 66.666015625 -0.0126953125 73.3330078125 0.0263671875 80 c 0
 -0.0126953125 492.462890625 110.987304688 762.783203125 333.026367188 890.961914062 c 0
 346.745117188 895.697265625 359.098632812 898.065429688 370.086914062 898.065429688 c 0
 391.640625 898.065429688 407.94140625 888.954101562 418.989257812 870.732421875 c 0
 419.958007812 867.174804688 421.197265625 862.82421875 422.70703125 857.681640625 c 0
 433.5703125 820.666992188 424.368164062 795.62890625 395.099609375 782.567382812 c 0
 391.370117188 780.653320312 387.638671875 778.477539062 383.904296875 776.0390625 c 0
 207.948242188 661.814453125 119.970703125 423.134765625 119.970703125 60 c 0
 119.970703125 20 99.970703125 0 59.970703125 0 c 0
EndSplineSet
EndChar

StartChar: luT4
Encoding: 57453 57453 53
Width: 425
GlyphClass: 2
Flags: MW
HStem: -0.000183105 898.066
VStem: 306 120
LayerCount: 2
Fore
SplineSet
346 838.065429688 m 1
 366 818.065429688 l 1
 366 858.065429688 l 1
 386 838.065429688 l 1
 346 838.065429688 l 1
41 61.0654296875 m 1
 61 41.0654296875 l 1
 61 81.0654296875 l 1
 81 61.0654296875 l 1
 41 61.0654296875 l 1
366 898.065429688 m 0
 406 898.065429688 426.002929688 878.065429688 426.002929688 838.065429688 c 0
 426.002929688 831.3984375 425.983398438 824.731445312 425.944335938 818.064453125 c 0
 425.983398438 405.6015625 314.983398438 135.28125 92.9443359375 7.103515625 c 0
 79.2255859375 2.3681640625 66.8720703125 0 55.8837890625 0 c 0
 34.330078125 0 18.029296875 9.111328125 6.9814453125 27.3330078125 c 0
 6.0126953125 30.890625 4.7734375 35.2412109375 3.263671875 40.3837890625 c 0
 -7.599609375 77.3984375 1.6025390625 102.436523438 30.87109375 115.498046875 c 0
 34.6005859375 117.412109375 38.33203125 119.587890625 42.06640625 122.026367188 c 0
 218.022460938 236.250976562 306 474.930664062 306 838.065429688 c 0
 306 878.065429688 326 898.065429688 366 898.065429688 c 0
EndSplineSet
EndChar

StartChar: luKLY
Encoding: 57454 57454 54
Width: 333
GlyphClass: 2
Flags: MW
HStem: -67.8741 292.675
VStem: 0 333.252
LayerCount: 2
Fore
SplineSet
179 154 m 1
 159 174 l 1
 159 134 l 1
 139 154 l 1
 179 154 l 1
125 154 m 1
 105 174 l 1
 105 134 l 1
 85 154 l 1
 125 154 l 1
178 2 m 1
 158 22 l 1
 158 -18 l 1
 138 2 l 1
 178 2 l 1
128 1 m 1
 108 21 l 1
 108 -19 l 1
 88 1 l 1
 128 1 l 1
277.501953125 60 m 1
 257.501953125 80 l 1
 257.501953125 40 l 1
 237.501953125 60 l 1
 277.501953125 60 l 1
293.501953125 174 m 1
 273.501953125 194 l 1
 273.501953125 154 l 1
 253.501953125 174 l 1
 293.501953125 174 l 1
215.440429688 192.038085938 m 1
 221.98046875 220.012695312 241.334960938 234.000976562 273.502929688 234.000976562 c 0
 313.502929688 234.000976562 333.502929688 214.000976562 333.502929688 174.000976562 c 1
 333.627929688 174.000976562 l 1
 333.544921875 172.000976562 333.419921875 160.54296875 333.252929688 139.625976562 c 0
 333.41015625 13.9736328125 277.829101562 -53.2392578125 166.510742188 -62.01171875 c 0
 155.13671875 -65.919921875 143.706054688 -67.8740234375 132.21875 -67.8740234375 c 0
 103.173828125 -67.8740234375 73.7685546875 -55.3828125 44.001953125 -30.3994140625 c 0
 14.6689453125 -5.955078125 0.001953125 29.755859375 0.001953125 76.7333984375 c 0
 0.001953125 123.7109375 14.2685546875 160.1328125 42.8017578125 186 c 0
 71.3349609375 211.8671875 100.935546875 224.80078125 131.603515625 224.80078125 c 0
 162.271484375 224.80078125 190.216796875 213.879882812 215.440429688 192.038085938 c 1
EndSplineSet
EndChar

StartChar: luKL
Encoding: 57455 57455 55
Width: 463
VWidth: 0
GlyphClass: 2
Flags: MW
HStem: -136.375 108.375 88.0909 289.932
VStem: 0 307 185.641 121.375 355.589 107.58
LayerCount: 2
Fore
SplineSet
267.015625 221 m 1xc8
 247.015625 241 l 1
 247.015625 201 l 1
 227.015625 221 l 1
 267.015625 221 l 1xc8
267.015625 60 m 1
 247.015625 80 l 1
 247.015625 40 l 1
 227.015625 60 l 1
 267.015625 60 l 1
307.0078125 39.5 m 2
 306.99609375 -5.5 312.998046875 -28.0009765625 325.015625 -28.0009765625 c 0
 338.338867188 -28.0009765625 347.5 -19.0009765625 352.5 -1.0009765625 c 0
 354.559570312 6.412109375 355.588867188 14.0087890625 355.588867188 21.7890625 c 0
 355.588867188 52.64453125 339.392578125 86.380859375 307 122.999023438 c 1xe8
 307.015625 68.9990234375 l 1
 307.015625 59.9990234375 l 2xd8
 307.015625 59.7529296875 307.014648438 59.5078125 307.012695312 59.263671875 c 2
 307.0078125 39.5 l 2
203.014648438 375.999023438 m 1
 298.016601562 373.998046875 l 1
 304.016601562 319.998046875 307.016601562 289.665039062 307.016601562 282.998046875 c 1
 377.672851562 206.998046875 421.500976562 154.331054688 438.500976562 124.998046875 c 0
 454.946289062 96.62109375 463.168945312 52.841796875 463.168945312 -6.3408203125 c 0
 463.168945312 -8.3349609375 463.159179688 -10.3466796875 463.140625 -12.3759765625 c 0
 463.046875 -28.79296875 451.004882812 -53.5009765625 427.015625 -86.5009765625 c 0
 403.004882812 -119.500976562 362.879882812 -136.125976562 306.640625 -136.375976562 c 0
 306.2265625 -136.377929688 305.813476562 -136.37890625 305.40234375 -136.37890625 c 0
 225.560546875 -136.37890625 185.639648438 -96.044921875 185.639648438 -15.3759765625 c 2
 185.639648438 98.3740234375 l 1xd8
 180.545898438 92.791015625 173.090820312 89.5869140625 163.2734375 88.76171875 c 0
 156.665039062 88.3134765625 150.293945312 88.08984375 144.16015625 88.08984375 c 0
 106.80859375 88.08984375 78.2548828125 96.392578125 58.4990234375 112.999023438 c 0
 19.4990234375 145.78125 -0.0009765625 185.643554688 -0.0009765625 232.5859375 c 0
 -0.0009765625 279.528320312 15.666015625 316.499023438 46.9990234375 343.499023438 c 0
 73.7080078125 366.513671875 105.748046875 378.021484375 143.119140625 378.021484375 c 0
 149.58984375 378.021484375 156.220703125 377.676757812 163.01171875 376.986328125 c 0
 169.669921875 376.328125 177.670898438 372.999023438 187.014648438 366.999023438 c 1
 203.014648438 375.999023438 l 1
EndSplineSet
EndChar

StartChar: luSJ
Encoding: 57456 57456 56
Width: 459
VWidth: 0
GlyphClass: 2
Flags: MW
HStem: -43.2052 166.711 192.126 116.806
VStem: 343.773 115.372
LayerCount: 2
Fore
SplineSet
243.76953125 54.80859375 m 1
 231.81640625 80.4423828125 l 1
 218.135742188 42.8544921875 l 1
 206.181640625 68.4892578125 l 1
 243.76953125 54.80859375 l 1
290.7890625 -134.702148438 m 1
 278.834960938 -109.067382812 l 1
 265.154296875 -146.655273438 l 1
 253.201171875 -121.021484375 l 1
 290.7890625 -134.702148438 l 1
168.59375 82.169921875 m 1
 178.624023438 109.727539062 195.078125 123.508789062 217.958984375 123.508789062 c 0
 226.287109375 123.508789062 235.465820312 121.68359375 245.49609375 118.033203125 c 0
 274.104492188 107.62109375 288.408203125 91.44140625 288.408203125 69.4931640625 c 0
 288.408203125 57.5361328125 284.163085938 43.8671875 275.671875 28.486328125 c 0
 257.50390625 -19.3056640625 224.32421875 -43.2021484375 176.131835938 -43.2021484375 c 0
 153.201171875 -43.2021484375 126.87109375 -37.7919921875 97.142578125 -26.9716796875 c 0
 33.23046875 -3.7099609375 1.2744140625 38.4326171875 1.2744140625 99.4560546875 c 0
 1.2744140625 126.47265625 7.5380859375 157.189453125 20.0654296875 191.607421875 c 0
 48.5341796875 269.825195312 100.033203125 308.934570312 174.561523438 308.934570312 c 0
 206.901367188 308.934570312 243.578125 301.5703125 284.590820312 286.841796875 c 0
 400.959960938 244.486328125 459.14453125 177.327148438 459.14453125 85.36328125 c 0
 459.14453125 54.052734375 452.400390625 19.8671875 438.911132812 -17.193359375 c 0
 407.978515625 -102.181640625 360.553710938 -158.377929688 296.63671875 -185.78125 c 0
 284.069335938 -191.139648438 269.014648438 -190.626953125 251.473632812 -184.243164062 c 0
 223.916015625 -174.213867188 210.13671875 -157.758789062 210.13671875 -134.87890625 c 0
 210.13671875 -126.55078125 211.961914062 -117.372070312 215.612304688 -107.341796875 c 0
 224.224609375 -83.6796875 238.936523438 -70.318359375 259.748046875 -67.2568359375 c 1
 259.454101562 -65.8330078125 l 1
 289.30078125 -61.7978515625 314.15234375 -32.5029296875 334.0078125 22.05078125 c 0
 340.517578125 39.9365234375 343.772460938 56.5751953125 343.772460938 71.9677734375 c 0
 343.772460938 120.6875 311.162109375 156.916015625 245.942382812 180.654296875 c 0
 224.250976562 188.302734375 205.431640625 192.126953125 189.485351562 192.126953125 c 0
 159.671875 192.126953125 139.899414062 178.759765625 130.168945312 152.025390625 c 0
 115.234375 110.9921875 117.006835938 87.1123046875 135.487304688 80.3857421875 c 0
 153.967773438 73.6591796875 164.690429688 74.3681640625 167.654296875 82.51171875 c 1
 168.59375 82.169921875 l 1
EndSplineSet
EndChar

StartChar: luGL
Encoding: 57459 57459 57
Width: 355
GlyphClass: 2
Flags: MW
HStem: 1 120 162 292.801
VStem: 0 356
LayerCount: 2
Fore
SplineSet
150 392 m 1
 130 412 l 1
 130 372 l 1
 110 392 l 1
 150 392 l 1
150 61 m 1
 130 81 l 1
 130 41 l 1
 110 61 l 1
 150 61 l 1
179 384 m 1
 159 404 l 1
 159 364 l 1
 139 384 l 1
 179 384 l 1
125 384 m 1
 105 404 l 1
 105 364 l 1
 85 384 l 1
 125 384 l 1
178 232 m 1
 158 252 l 1
 158 212 l 1
 138 232 l 1
 178 232 l 1
128 231 m 1
 108 251 l 1
 108 211 l 1
 88 231 l 1
 128 231 l 1
70 61 m 0
 70 101 89.9970703125 120.999023438 129.997070312 120.999023438 c 0
 130.12890625 120.999023438 130.260742188 121.03125 130.392578125 121.095703125 c 0
 160.129882812 121.03125 185.374023438 130.896484375 206.125976562 150.690429688 c 0
 226.877929688 170.484375 238.055664062 193.635742188 239.659179688 220.14453125 c 1
 213.857421875 181.379882812 178.237304688 161.998046875 132.797851562 161.998046875 c 0
 103.46484375 161.998046875 78.1318359375 170.931640625 56.798828125 188.798828125 c 0
 18.9326171875 220.512695312 -0.0009765625 259.840820312 -0.0009765625 306.784179688 c 0
 -0.0009765625 353.727539062 14.265625 390.1328125 42.798828125 416 c 0
 71.33203125 441.8671875 96.4306640625 454.80078125 118.09375 454.80078125 c 0
 187.485351562 454.80078125 244.484375 432.666992188 289.090820312 388.400390625 c 0
 333.697265625 344.133789062 356 290.5 356 227.5 c 0
 356 164.5 334 111 290 67 c 0
 246 23 192.666992188 1 130 1 c 0
 90 1 70 21 70 61 c 0
EndSplineSet
EndChar

StartChar: eprost0
Encoding: 57472 57472 58
Width: 1703
GlyphClass: 2
Flags: MW
HStem: 0.0255585 21G 138.85 119.543
LayerCount: 2
Fore
SplineSet
1644.88964844 178.784179688 m 1
 1663.0703125 200.451171875 l 1
 1623.22265625 196.96484375 l 1
 1641.40332031 218.631835938 l 1
 1644.88964844 178.784179688 l 1
61.935546875 40.2939453125 m 1
 80.1162109375 61.9609375 l 1
 40.2685546875 58.474609375 l 1
 58.44921875 80.1416015625 l 1
 61.935546875 40.2939453125 l 1
1646.44824219 258.827148438 m 0
 1680.89160156 258.836914062 1699.78613281 239.728515625 1703.13085938 201.502929688 c 0
 1703.38574219 198.587890625 1703.51367188 195.7734375 1703.51367188 193.060546875 c 0
 1703.51367188 160.193359375 1684.80273438 142.123046875 1647.38085938 138.848632812 c 2
 65.4228515625 0.4453125 l 2
 62.216796875 0.1650390625 59.12890625 0.0244140625 56.158203125 0.0244140625 c 0
 22.2060546875 0.0244140625 3.626953125 18.345703125 0.4208984375 54.9873046875 c 0
 0.140625 58.193359375 0 61.28125 0 64.251953125 c 0
 0 98.2041015625 18.3212890625 116.783203125 54.962890625 119.989257812 c 2
 1636.92089844 258.392578125 l 2
 1640.5234375 258.70703125 1643.69921875 258.8515625 1646.44824219 258.827148438 c 0
EndSplineSet
EndChar

StartChar: eprost1
Encoding: 57473 57473 59
Width: 1304
GlyphClass: 2
Flags: MW
HStem: -0.542801 226.21
LayerCount: 2
Fore
SplineSet
1246.32421875 144.349609375 m 1
 1264.50488281 166.016601562 l 1
 1224.65722656 162.53125 l 1
 1242.83789062 184.198242188 l 1
 1246.32421875 144.349609375 l 1
61.935546875 39.7255859375 m 1
 80.1162109375 61.392578125 l 1
 40.2685546875 57.90625 l 1
 58.44921875 79.5732421875 l 1
 61.935546875 39.7255859375 l 1
1225.77246094 221.853515625 m 2
 1236.10839844 224.396484375 1245.42675781 225.666992188 1253.72558594 225.666992188 c 0
 1284.2109375 225.666992188 1300.95214844 208.513671875 1303.94921875 174.206054688 c 0
 1304.27734375 170.451171875 1304.44140625 166.844726562 1304.44140625 163.38671875 c 0
 1304.44140625 126.647460938 1285.92773438 106.658203125 1248.90136719 103.418945312 c 2
 65.421875 -0.1220703125 l 2
 62.2158203125 -0.40234375 59.1279296875 -0.54296875 56.1572265625 -0.54296875 c 0
 22.205078125 -0.54296875 3.6259765625 17.7783203125 0.4208984375 54.419921875 c 0
 0.140625 57.6259765625 0 60.7138671875 0 63.6845703125 c 0
 0 97.63671875 18.3212890625 116.215820312 54.962890625 119.420898438 c 2
 1225.77246094 221.853515625 l 2
EndSplineSet
EndChar

StartChar: eprost2
Encoding: 57474 57474 60
Width: 947
GlyphClass: 2
Flags: MW
HStem: 2.6369 193.522
VStem: 0.000167847 957.182
LayerCount: 2
Fore
SplineSet
898.739257812 116.116210938 m 1
 916.919921875 137.783203125 l 1
 877.072265625 134.296875 l 1
 895.252929688 155.963867188 l 1
 898.739257812 116.116210938 l 1
61.935546875 42.9052734375 m 1
 80.1162109375 64.5732421875 l 1
 40.2685546875 61.0869140625 l 1
 58.44921875 82.75390625 l 1
 61.935546875 42.9052734375 l 1
890.770507812 195.724609375 m 2
 894.079101562 196.013671875 897.265625 196.159179688 900.327148438 196.159179688 c 0
 934.752929688 196.159179688 953.56640625 177.862304688 956.767578125 141.26953125 c 0
 957.043945312 138.112304688 957.181640625 135.068359375 957.181640625 132.138671875 c 0
 957.181640625 98.0966796875 938.53125 79.4443359375 901.229492188 76.1806640625 c 2
 65.421875 3.056640625 l 2
 62.2158203125 2.7763671875 59.1279296875 2.6357421875 56.1572265625 2.6357421875 c 0
 22.205078125 2.6357421875 3.6259765625 20.95703125 0.4208984375 57.599609375 c 0
 0.140625 60.8056640625 0 63.8935546875 0 66.8642578125 c 0
 0 100.81640625 18.3212890625 119.395507812 54.962890625 122.6015625 c 2
 890.770507812 195.724609375 l 2
EndSplineSet
EndChar

StartChar: eprost3
Encoding: 57475 57475 61
Width: 698
GlyphClass: 2
Flags: MW
HStem: 0.531418 173.126
VStem: 0.000167847 697.73
LayerCount: 2
Fore
SplineSet
639.641601562 92.3466796875 m 1
 657.822265625 114.013671875 l 1
 617.974609375 110.52734375 l 1
 636.155273438 132.194335938 l 1
 639.641601562 92.3466796875 l 1
61.935546875 40.7998046875 m 1
 80.1162109375 62.466796875 l 1
 40.2685546875 58.98046875 l 1
 58.44921875 80.6474609375 l 1
 61.935546875 40.7998046875 l 1
619.08984375 169.849609375 m 2
 629.41015625 172.388671875 638.71484375 173.65625 647.00390625 173.65625 c 0
 677.474609375 173.65625 694.217773438 156.501953125 697.233398438 122.193359375 c 0
 697.565429688 118.418945312 697.731445312 114.793945312 697.731445312 111.319335938 c 0
 697.731445312 74.6201171875 679.227539062 54.6513671875 642.219726562 51.4140625 c 2
 65.4228515625 0.951171875 l 2
 62.216796875 0.6708984375 59.12890625 0.5302734375 56.158203125 0.5302734375 c 0
 22.2060546875 0.5302734375 3.626953125 18.8515625 0.4208984375 55.4931640625 c 0
 0.140625 58.69921875 0 61.787109375 0 64.7578125 c 0
 0 98.7099609375 18.3212890625 117.2890625 54.962890625 120.495117188 c 2
 619.08984375 169.849609375 l 2
EndSplineSet
EndChar

StartChar: eprost4
Encoding: 57476 57476 62
Width: 498
GlyphClass: 2
Flags: MW
HStem: 0.247238 155.701
VStem: -0.000656128 498.52
LayerCount: 2
Fore
SplineSet
440.40234375 74.630859375 m 1
 458.583007812 96.2978515625 l 1
 418.735351562 92.8115234375 l 1
 436.916015625 114.478515625 l 1
 440.40234375 74.630859375 l 1
61.935546875 40.515625 m 1
 80.1162109375 62.1826171875 l 1
 40.267578125 58.6962890625 l 1
 58.44921875 80.36328125 l 1
 61.935546875 40.515625 l 1
419.850585938 152.134765625 m 2
 430.186523438 154.677734375 439.505859375 155.94921875 447.8046875 155.94921875 c 0
 478.290039062 155.94921875 495.03125 138.795898438 498.028320312 104.48828125 c 0
 498.356445312 100.733398438 498.520507812 97.126953125 498.520507812 93.6689453125 c 0
 498.520507812 56.9296875 480.006835938 36.9404296875 442.98046875 33.701171875 c 2
 65.421875 0.6689453125 l 2
 62.2158203125 0.388671875 59.1279296875 0.248046875 56.1572265625 0.248046875 c 0
 22.205078125 0.248046875 3.6259765625 18.5693359375 0.419921875 55.2109375 c 0
 0.1396484375 58.416015625 -0.0009765625 61.50390625 -0.0009765625 64.4736328125 c 0
 -0.0009765625 98.4267578125 18.3203125 117.005859375 54.962890625 120.2109375 c 2
 419.850585938 152.134765625 l 2
EndSplineSet
EndChar

StartChar: eprost5
Encoding: 57477 57477 63
Width: 299
GlyphClass: 2
Flags: MW
HStem: -1.06281 121.483
VStem: 0.0338287 341.254
LayerCount: 2
Fore
SplineSet
283.177734375 59.5439453125 m 1
 301.358398438 81.2109375 l 1
 261.510742188 77.724609375 l 1
 279.69140625 99.392578125 l 1
 283.177734375 59.5439453125 l 1
62.0224609375 40.1953125 m 1
 80.203125 61.8623046875 l 1
 40.35546875 58.376953125 l 1
 58.5361328125 80.0439453125 l 1
 62.0224609375 40.1953125 l 1
285.754882812 18.61328125 m 2
 65.595703125 -0.6494140625 l 2
 62.4384765625 -0.92578125 59.3955078125 -1.0634765625 56.4658203125 -1.0634765625 c 0
 22.4248046875 -1.0634765625 3.7724609375 17.587890625 0.5087890625 54.890625 c 0
 0.1923828125 58.501953125 0.0341796875 61.9638671875 0.0341796875 65.27734375 c 0
 0.0341796875 102.0390625 19.486328125 120.419921875 58.390625 120.419921875 c 0
 61.5751953125 120.419921875 64.890625 120.296875 68.3359375 120.05078125 c 2
 262.625976562 137.048828125 l 2
 272.958007812 139.590820312 282.272460938 140.861328125 290.569335938 140.861328125 c 0
 321.05078125 140.861328125 337.79296875 123.70703125 340.794921875 89.3994140625 c 0
 341.124023438 85.6396484375 341.288085938 82.0283203125 341.288085938 78.56640625 c 0
 341.288085938 41.8369140625 322.77734375 21.8525390625 285.754882812 18.61328125 c 2
EndSplineSet
EndChar

StartChar: eprost6
Encoding: 57478 57478 64
Width: 200
GlyphClass: 2
Flags: MW
HStem: 0.290695 121.482
VStem: -0.0536957 239.643
LayerCount: 2
Fore
SplineSet
181.478515625 52.0078125 m 1
 199.659179688 73.6748046875 l 1
 159.811523438 70.1884765625 l 1
 177.9921875 91.85546875 l 1
 181.478515625 52.0078125 l 1
61.935546875 41.548828125 m 1
 80.1162109375 63.2158203125 l 1
 40.2685546875 59.7294921875 l 1
 58.44921875 81.396484375 l 1
 61.935546875 41.548828125 l 1
184.055664062 11.076171875 m 2
 65.5078125 0.7060546875 l 2
 62.3505859375 0.4296875 59.306640625 0.2919921875 56.376953125 0.2919921875 c 0
 22.3349609375 0.2919921875 3.6826171875 18.9423828125 0.4189453125 56.244140625 c 0
 0.103515625 59.8544921875 -0.0546875 63.3154296875 -0.0546875 66.626953125 c 0
 -0.0546875 103.390625 19.3984375 121.772460938 58.3037109375 121.772460938 c 0
 61.48828125 121.772460938 64.802734375 121.649414062 68.248046875 121.403320312 c 2
 160.9296875 129.512695312 l 2
 171.259765625 132.052734375 180.572265625 133.323242188 188.8671875 133.323242188 c 0
 219.3515625 133.323242188 236.094726562 116.168945312 239.095703125 81.8603515625 c 0
 239.424804688 78.1015625 239.588867188 74.4912109375 239.588867188 71.029296875 c 0
 239.588867188 34.2998046875 221.078125 14.3154296875 184.055664062 11.076171875 c 2
EndSplineSet
EndChar

StartChar: okroci
Encoding: 57496 57496 65
Width: 542
GlyphClass: 2
Flags: MW
HStem: 0 120 578 21G<40 68.6973> 656.039 123.462
VStem: 419.547 122.453
LayerCount: 2
Fore
SplineSet
210 60 m 1
 190 80 l 1
 190 40 l 1
 170 60 l 1
 210 60 l 1
501 403 m 1
 481 423 l 1
 481 383 l 1
 461 403 l 1
 501 403 l 1
410 153 m 1
 390 173 l 1
 390 133 l 1
 370 153 l 1
 410 153 l 1
80 638 m 1
 60 658 l 1
 60 618 l 1
 40 638 l 1
 80 638 l 1
60 578 m 0
 20 578 -0.0029296875 598 -0.0029296875 638 c 0
 -0.0029296875 659.63671875 7.0654296875 675.817382812 21.203125 686.54296875 c 1
 69.6513671875 748.182617188 134.729492188 779.168945312 216.436523438 779.501953125 c 0
 216.788085938 779.502929688 217.139648438 779.50390625 217.491210938 779.50390625 c 0
 298.787109375 779.50390625 373.123046875 741.169921875 440.499023438 664.500976562 c 0
 508.166015625 587.500976562 541.999023438 500.333984375 541.999023438 403.000976562 c 0
 541.999023438 342.333984375 530.33203125 284.000976562 506.999023438 228.000976562 c 0
 468.33203125 135.333984375 416.999023438 73.833984375 352.999023438 43.5009765625 c 0
 291.693359375 14.4453125 239.298828125 -0.0830078125 195.814453125 -0.0830078125 c 0
 193.903320312 -0.0830078125 192.008789062 -0.0546875 190.131835938 0.0009765625 c 0
 190.087890625 0.0009765625 190.043945312 0.0009765625 190 0.0009765625 c 0
 150 0.0009765625 130 20.0009765625 130 60.0009765625 c 0
 130 100.000976562 150 120.000976562 190 120.000976562 c 0
 228.666992188 122.000976562 258 129.16796875 278 141.500976562 c 0
 298 153.833984375 320.72265625 172.72265625 346.166992188 198.166992188 c 0
 371.611328125 223.611328125 392.111328125 264.111328125 407.666992188 319.666992188 c 0
 415.586914062 347.953125 419.546875 376.071289062 419.546875 404.021484375 c 0
 419.546875 430.965820312 415.866210938 457.75390625 408.505859375 484.385742188 c 0
 393.509765625 538.643554688 372.840820312 575.681640625 346.5 595.5 c 0
 296.833007812 633.833007812 254.318359375 653.967773438 218.955078125 655.904296875 c 0
 217.33203125 655.993164062 215.706054688 656.038085938 214.077148438 656.038085938 c 0
 180.215820312 656.038085938 145.08984375 636.83203125 108.700195312 598.418945312 c 0
 106.676757812 595.706054688 104.969726562 593.717773438 103.579101562 592.454101562 c 0
 102.188476562 591.190429688 101.329101562 590.372070312 101 590 c 1
 100.866210938 590.157226562 l 1
 91.0166015625 582.052734375 77.39453125 578 60 578 c 0
EndSplineSet
EndChar

StartChar: okreci
Encoding: 57497 57497 66
Width: 411
GlyphClass: 2
Flags: MW
HStem: 0 120<40 61.9326 40 111.072> 658 120
VStem: 290.581 120.419
LayerCount: 2
Fore
SplineSet
80 718 m 1
 60 738 l 1
 60 698 l 1
 40 718 l 1
 80 718 l 1
80 60 m 1
 60 80 l 1
 60 40 l 1
 40 60 l 1
 80 60 l 1
371 402 m 1
 351 422 l 1
 351 382 l 1
 331 402 l 1
 371 402 l 1
0 718 m 0
 0 758 20.0009765625 778.000976562 60.0009765625 778.000976562 c 0
 60.044921875 778.000976562 60.0888671875 778.000976562 60.1328125 778.000976562 c 1
 60.1328125 778.251953125 60.1328125 778.502929688 60.1337890625 778.75390625 c 0
 60.3515625 778.75390625 60.5693359375 778.75390625 60.787109375 778.75390625 c 0
 161.739257812 778.75390625 245.310546875 740.8359375 311.500976562 665 c 0
 377.833984375 589 411.000976562 500 411.000976562 398 c 0
 411.000976562 296 379.033203125 205.401367188 315.09765625 126.203125 c 0
 247.17578125 42.0673828125 162.143554688 0 60 0 c 0
 20 0 0 20 0 60 c 0
 0 100 20 120 60 120 c 0
 63.865234375 120 67.55859375 119.771484375 71.0810546875 119.314453125 c 0
 143.830078125 123.461914062 207.969726562 168.690429688 263.5 255.000976562 c 0
 281.274414062 283.065429688 290.301757812 313.444335938 290.581054688 346.137695312 c 0
 290.860351562 378.831054688 291 397.415039062 291 401.890625 c 0
 291 406.366210938 290.874023438 424.900390625 290.622070312 457.493164062 c 0
 290.370117188 490.0859375 281.49609375 518.254882812 264 542 c 0
 208.799804688 616.234375 144.541992188 655.108398438 71.2255859375 658.622070312 c 0
 67.6767578125 658.20703125 63.9345703125 658 60 658 c 0
 20 658 0 678 0 718 c 0
EndSplineSet
EndChar

StartChar: okredzi
Encoding: 57504 57504 67
Width: 301
GlyphClass: 2
Flags: MW
HStem: 0.0014801 119.998 376 120.67
VStem: 180.268 121.235
LayerCount: 2
Fore
SplineSet
84 60 m 1
 64 80 l 1
 64 40 l 1
 44 60 l 1
 84 60 l 1
260 246 m 1
 240 266 l 1
 240 226 l 1
 220 246 l 1
 260 246 l 1
80 436 m 1
 60 456 l 1
 60 416 l 1
 40 436 l 1
 80 436 l 1
63.8603515625 120 m 0
 63.8603515625 120.1171875 63.8642578125 120.23828125 63.865234375 120.35546875 c 0
 96.6240234375 120.12109375 123.734375 130.260742188 145.1953125 150.774414062 c 0
 166.65625 171.288085938 178.348632812 200.59375 180.272460938 238.69140625 c 0
 179.84375 244.349609375 179.461914062 256.014648438 179.127929688 273.686523438 c 0
 178.793945312 291.358398438 165.639648438 312.400390625 139.665039062 336.811523438 c 0
 111.864257812 362.939453125 85.310546875 376.00390625 60.00390625 376.00390625 c 0
 20.00390625 376.00390625 0.00390625 395.9453125 0.00390625 435.829101562 c 0
 0.00390625 475.711914062 19.8134765625 495.76953125 59.4326171875 496.001953125 c 0
 59.4326171875 496.225585938 59.431640625 496.44921875 59.4296875 496.672851562 c 1
 125.811523438 496.2265625 182.668945312 472.669921875 230.001953125 426.002929688 c 0
 277.670898438 379.004882812 301.505859375 319.509765625 301.505859375 247.517578125 c 0
 301.505859375 176.844726562 277.837890625 118.005859375 230.501953125 71.0009765625 c 0
 182.8359375 23.6689453125 127.146484375 0.0029296875 63.4326171875 0.0029296875 c 0
 23.8115234375 0.0029296875 4.0009765625 20.0390625 4.0009765625 60.111328125 c 0
 4.0009765625 99.98046875 23.9541015625 119.943359375 63.8603515625 120 c 0
EndSplineSet
EndChar

StartChar: okrodzi
Encoding: 57505 57505 68
Width: 386
GlyphClass: 2
Flags: MW
HStem: 0.00126648 120.347 366.33 126.038
VStem: 264.505 125.603
LayerCount: 2
Fore
SplineSet
157 60 m 1
 137 80 l 1
 137 40 l 1
 117 60 l 1
 157 60 l 1
328 165 m 1
 308 185 l 1
 308 145 l 1
 288 165 l 1
 328 165 l 1
80 391 m 1
 60 411 l 1
 60 371 l 1
 40 391 l 1
 80 391 l 1
136.90234375 120 m 0
 136.90234375 120.1171875 136.903320312 120.232421875 136.904296875 120.349609375 c 0
 137.250976562 120.34765625 137.59765625 120.346679688 137.943359375 120.346679688 c 0
 172.889648438 120.346679688 202.575195312 132.064453125 227 155.499023438 c 0
 252.002929688 179.48828125 264.504882812 210.690429688 264.504882812 249.104492188 c 0
 264.504882812 286.642578125 247.669921875 319.440429688 214 347.499023438 c 0
 198.936523438 360.052734375 182.634765625 366.329101562 165.094726562 366.329101562 c 0
 143.045898438 366.329101562 119.041015625 356.411132812 93.080078125 336.57421875 c 1
 92.421875 337.658203125 l 1
 83.681640625 333.21875 72.8740234375 330.999023438 60 330.999023438 c 0
 20 330.999023438 0 350.999023438 0 390.999023438 c 0
 -0 416.702148438 9.5888671875 434.465820312 28.7666015625 444.2890625 c 0
 70.3212890625 476.340820312 113.504882812 492.3671875 158.317382812 492.3671875 c 0
 176.510742188 492.3671875 194.97265625 489.725585938 213.703125 484.442382812 c 0
 278.568359375 466.146484375 328.157226562 419.263671875 362.469726562 343.79296875 c 0
 380.895507812 303.263671875 390.108398438 265.237304688 390.108398438 229.713867188 c 0
 390.108398438 182.352539062 373.732421875 139.439453125 340.979492188 100.974609375 c 0
 283.661132812 33.6591796875 215.4921875 0.0009765625 136.47265625 0.0009765625 c 0
 96.82421875 0.0009765625 77 20.0380859375 77 60.1123046875 c 0
 77 99.9970703125 96.9677734375 119.959960938 136.90234375 120 c 0
EndSplineSet
EndChar

StartChar: luU0
Encoding: 57517 57517 69
Width: 455
GlyphClass: 2
Flags: MW
HStem: -164.026 120.026 820 20G<374 414>
VStem: 0 120<25.3335 80 25.3335 80> 333 121<505.333 800>
LayerCount: 2
Fore
SplineSet
80 60 m 1
 60 80 l 1
 60 40 l 1
 40 60 l 1
 80 60 l 1
414 780 m 1
 394 800 l 1
 394 760 l 1
 374 780 l 1
 414 780 l 1
60 120 m 0
 100 120 120 100 120 60 c 0
 120 -9.3330078125 136 -44 168 -44 c 0
 278 -44 333 230.666992188 333 780 c 1
 334 780 l 1
 334 820 354 840 394 840 c 0
 434 840 454 820 454 780 c 0
 453.336914062 150.649414062 358.006835938 -164.026367188 168.010742188 -164.026367188 c 0
 167.009765625 -164.026367188 166.005859375 -164.017578125 165 -164 c 0
 55 -162 0 -87.3330078125 0 60 c 0
 0 100 20 120 60 120 c 0
EndSplineSet
EndChar

StartChar: luU1
Encoding: 57518 57518 70
Width: 587
GlyphClass: 2
Flags: MW
HStem: -164.051 120.051 820 20G<506 546>
VStem: 0 120<25.3335 80 25.3335 80> 465 121<505.333 800>
LayerCount: 2
Fore
SplineSet
80 60 m 1
 60 80 l 1
 60 40 l 1
 40 60 l 1
 80 60 l 1
546 780 m 1
 526 800 l 1
 526 760 l 1
 506 780 l 1
 546 780 l 1
60 120 m 0
 100 120 120 100 120 60 c 0
 120 -9.3330078125 144.666992188 -44 194 -44 c 0
 374.666992188 -44 465 230.666992188 465 780 c 1
 466 780 l 1
 466 820 486 840 526 840 c 0
 566 840 586 820 586 780 c 0
 585.337890625 150.6328125 455.583007812 -164.05078125 196.736328125 -164.05078125 c 0
 194.831054688 -164.05078125 192.918945312 -164.034179688 191 -164 c 0
 63.6669921875 -162 0 -87.3330078125 0 60 c 0
 0 100 20 120 60 120 c 0
EndSplineSet
EndChar

StartChar: luU2
Encoding: 57519 57519 71
Width: 773
GlyphClass: 2
Flags: MW
HStem: -207.241 115.886 526.105 21G
VStem: -1.52153 116.483
LayerCount: 2
Fore
SplineSet
727.008789062 505.60546875 m 1
 719.688476562 532.92578125 l 1
 699.688476562 498.28515625 l 1
 692.368164062 525.60546875 l 1
 727.008789062 505.60546875 l 1
80.361328125 57.337890625 m 1
 62.1806640625 79.0048828125 l 1
 58.6943359375 39.1572265625 l 1
 40.513671875 60.82421875 l 1
 80.361328125 57.337890625 l 1
146.965820312 -85 m 0
 152.8984375 -89.236328125 159.69140625 -91.3544921875 167.348632812 -91.3544921875 c 0
 244.040039062 -91.3544921875 407.209960938 121.131835938 656.858398438 546.10546875 c 1
 657.724609375 545.60546875 l 1
 670.404296875 567.567382812 686.026367188 578.547851562 704.590820312 578.547851562 c 0
 715.30859375 578.547851562 727.0078125 574.887695312 739.6875 567.567382812 c 0
 761.655273438 554.884765625 772.638671875 539.262695312 772.638671875 520.702148438 c 0
 772.638671875 509.913085938 768.927734375 498.131835938 761.505859375 485.357421875 c 0
 495.883789062 23.6259765625 296.379882812 -207.240234375 162.994140625 -207.240234375 c 0
 143.208007812 -207.240234375 124.875976562 -202.16015625 107.999023438 -192 c 0
 34.984375 -148.19140625 -1.5224609375 -77.1787109375 -1.5224609375 21.0380859375 c 0
 -1.5224609375 34.9189453125 -0.79296875 49.3427734375 0.6650390625 64.310546875 c 0
 3.87109375 100.952148438 22.4501953125 119.2734375 56.40234375 119.2734375 c 0
 59.373046875 119.2734375 62.4609375 119.1328125 65.6669921875 118.852539062 c 0
 102.890625 115.595703125 121.502929688 98.17578125 121.502929688 66.5927734375 c 0
 121.502929688 58.9072265625 120.400390625 50.3828125 118.196289062 41.01953125 c 0
 116.0390625 25.7294921875 114.9609375 11.68359375 114.9609375 -1.1181640625 c 0
 114.9609375 -41.380859375 125.62890625 -69.341796875 146.965820312 -85 c 0
EndSplineSet
EndChar

StartChar: luU3
Encoding: 57520 57520 72
Width: 882
GlyphClass: 2
Flags: MW
HStem: -164.002 120 528.729 21G
VStem: -1 120.001
LayerCount: 2
Fore
SplineSet
79 60 m 1
 59 80 l 1
 59 40 l 1
 39 60 l 1
 79 60 l 1
835.654296875 508.229492188 m 1
 828.333984375 535.549804688 l 1
 808.333984375 500.909179688 l 1
 801.012695312 528.229492188 l 1
 835.654296875 508.229492188 l 1
-1 60 m 0
 -1 100 19 119.999023438 59 119.999023438 c 0
 98.9990234375 119.999023438 118.999023438 99.9990234375 119 59.9990234375 c 0
 119.666015625 -9.333984375 161.33203125 -44.0009765625 243.999023438 -44.0009765625 c 0
 244.19921875 -44.001953125 244.400390625 -44.0029296875 244.6015625 -44.0029296875 c 0
 363.916992188 -44.0029296875 537.55078125 153.57421875 765.50390625 548.727539062 c 1
 766.37109375 548.228515625 l 1
 779.05078125 570.190429688 794.672851562 581.170898438 813.237304688 581.170898438 c 0
 823.955078125 581.170898438 835.654296875 577.510742188 848.333984375 570.190429688 c 0
 870.3046875 557.505859375 881.290039062 541.883789062 881.290039062 523.325195312 c 0
 881.290039062 512.49609375 877.549804688 500.666992188 870.069335938 487.837890625 c 0
 618.359375 53.2783203125 408.92578125 -164.001953125 241.768554688 -164.001953125 c 0
 241.512695312 -164.001953125 241.256835938 -164.000976562 241.000976562 -164 c 0
 80.333984375 -164 -0.3330078125 -89.3330078125 -1 60 c 0
EndSplineSet
EndChar

StartChar: luU4
Encoding: 57521 57521 73
Width: 452
GlyphClass: 2
Flags: MW
HStem: -163.515 119.515
VStem: 0 120<25.3335 80 25.3335 80> 331 120<38.6665 100>
LayerCount: 2
Fore
SplineSet
411 80 m 1
 391 100 l 1
 391 60 l 1
 371 80 l 1
 411 80 l 1
80 60 m 1
 60 80 l 1
 60 40 l 1
 40 60 l 1
 80 60 l 1
331 80 m 0
 331 120 351 140 391 140 c 0
 431 140 451 120 451 80 c 0
 451 -82.34375 376.131835938 -163.515625 226.395507812 -163.515625 c 0
 226.09765625 -163.515625 225.798828125 -163.515625 225.5 -163.514648438 c 0
 75.1669921875 -163.190429688 0 -88.685546875 0 60 c 0
 0 100 20 120 60 120 c 0
 100 120 120 100 120 60 c 0
 120 -9.3330078125 155.166992188 -44 225.5 -44 c 0
 295.833007812 -44 331 -2.6669921875 331 80 c 0
EndSplineSet
EndChar

StartChar: luU5
Encoding: 57522 57522 74
Width: 455
GlyphClass: 2
Flags: MW
HStem: -0.796997 21G 313.143 116.421 661.942 20G
VStem: 710.167 125.065
LayerCount: 2
Fore
SplineSet
79.3583984375 52.14453125 m 1
 72.0380859375 79.46484375 l 1
 52.0380859375 44.82421875 l 1
 44.7177734375 72.14453125 l 1
 79.3583984375 52.14453125 l 1
789.611328125 707.907226562 m 1
 782.290039062 735.227539062 l 1
 762.290039062 700.586914062 l 1
 754.969726562 727.907226562 l 1
 789.611328125 707.907226562 l 1
400.859375 608.999023438 m 1
 393.538085938 636.3203125 l 1
 373.538085938 601.678710938 l 1
 366.217773438 628.999023438 l 1
 400.859375 608.999023438 l 1
802.290039062 769.869140625 m 0
 824.251953125 757.189453125 835.23046875 741.568359375 835.23046875 723.00390625 c 0
 835.23046875 712.286132812 831.5703125 700.586914062 824.25 687.907226562 c 0
 751.966796875 438.064453125 652.065429688 313.143554688 524.545898438 313.143554688 c 0
 426.134765625 313.143554688 361.619140625 344.762695312 330.999023438 408 c 1
 113.998046875 32.14453125 l 2
 101.318359375 10.18359375 85.6962890625 -0.796875 67.1328125 -0.796875 c 0
 56.4150390625 -0.796875 44.716796875 2.86328125 32.037109375 10.18359375 c 0
 10.0751953125 22.86328125 -0.9052734375 38.4853515625 -0.9052734375 57.0498046875 c 0
 -0.9052734375 67.767578125 2.7548828125 79.4658203125 10.0751953125 92.1455078125 c 0
 114.024414062 272.048828125 221.19140625 457.666992188 331.576171875 649 c 0
 344.255859375 670.961914062 359.877929688 681.942382812 378.44140625 681.942382812 c 0
 389.159179688 681.942382812 400.857421875 678.282226562 413.537109375 670.961914062 c 0
 436.568359375 657.665039062 448.083984375 641.926757812 448.083984375 623.74609375 c 0
 448.083984375 609.790039062 441.298828125 594.395507812 427.727539062 577.561523438 c 0
 424.221679688 571.969726562 422.3125 567.98828125 422 565.616210938 c 0
 422 474.915039062 452.787109375 429.564453125 514.360351562 429.564453125 c 0
 514.615234375 429.564453125 514.87109375 429.565429688 515.126953125 429.567382812 c 0
 591.07421875 429.220703125 656.087890625 522.538085938 710.166992188 709.520507812 c 1
 709.129882812 721.583007812 712.897460938 735.038085938 721.469726562 749.885742188 c 0
 733.493164062 770.709960938 748.5234375 781.122070312 766.561523438 781.122070312 c 0
 777.387695312 781.122070312 789.296875 777.37109375 802.290039062 769.869140625 c 0
EndSplineSet
EndChar

StartChar: luUa0
Encoding: 57523 57523 75
Width: 455
GlyphClass: 2
Flags: MW
HStem: -0.0273438 21G<41 81> 719.973 21G<375 415> 883.973 120.026
VStem: 1 120<39.9727 59.9727> 335 120<759.973 814.639>
LayerCount: 2
Fore
SplineSet
41 59.97265625 m 1
 61 39.97265625 l 1
 61 79.97265625 l 1
 81 59.97265625 l 1
 41 59.97265625 l 1
375 779.97265625 m 1
 395 759.97265625 l 1
 395 799.97265625 l 1
 415 779.97265625 l 1
 375 779.97265625 l 1
121 59.97265625 m 1
 121 19.97265625 101 -0.02734375 61 -0.02734375 c 0
 21 -0.02734375 1 19.97265625 1 59.97265625 c 0
 1.6630859375 689.323242188 96.9931640625 1003.99902344 286.989257812 1003.99902344 c 0
 287.990234375 1003.99902344 288.994140625 1003.99023438 290 1003.97265625 c 0
 400 1001.97265625 455 927.305664062 455 779.97265625 c 0
 455 739.97265625 435 719.97265625 395 719.97265625 c 0
 355 719.97265625 335 739.97265625 335 779.97265625 c 0
 335 849.305664062 319 883.97265625 287 883.97265625 c 0
 177 883.97265625 122 609.305664062 122 59.97265625 c 1
 121 59.97265625 l 1
EndSplineSet
EndChar

StartChar: luUa1
Encoding: 57524 57524 76
Width: 587
GlyphClass: 2
Flags: MW
HStem: -0.0498047 21G<41 81> 719.95 21G<507 547> 883.95 120.051
VStem: 1 120<39.9502 59.9502> 467 120<759.95 814.617>
LayerCount: 2
Fore
SplineSet
41 59.9501953125 m 1
 61 39.9501953125 l 1
 61 79.9501953125 l 1
 81 59.9501953125 l 1
 41 59.9501953125 l 1
507 779.950195312 m 1
 527 759.950195312 l 1
 527 799.950195312 l 1
 547 779.950195312 l 1
 507 779.950195312 l 1
121 59.9501953125 m 1
 121 19.9501953125 101 -0.0498046875 61 -0.0498046875 c 0
 21 -0.0498046875 1 19.9501953125 1 59.9501953125 c 0
 1.662109375 689.317382812 131.416992188 1004.00097656 390.263671875 1004.00097656 c 0
 392.168945312 1004.00097656 394.081054688 1003.984375 396 1003.95019531 c 0
 523.333007812 1001.95019531 587 927.283203125 587 779.950195312 c 0
 587 739.950195312 567 719.950195312 527 719.950195312 c 0
 487 719.950195312 467 739.950195312 467 779.950195312 c 0
 467 849.283203125 442.333007812 883.950195312 393 883.950195312 c 0
 212.333007812 883.950195312 122 609.283203125 122 59.9501953125 c 1
 121 59.9501953125 l 1
EndSplineSet
EndChar

StartChar: luUa2
Encoding: 57525 57525 77
Width: 813
GlyphClass: 2
Flags: MW
HStem: -0.113495 21G 669.789 115.886
VStem: 658.536 116.483
LayerCount: 2
Fore
SplineSet
693.135742188 521.096679688 m 1
 711.31640625 499.4296875 l 1
 714.802734375 539.27734375 l 1
 732.983398438 517.610351562 l 1
 693.135742188 521.096679688 l 1
46.48828125 72.8291015625 m 1
 53.80859375 45.5087890625 l 1
 73.80859375 80.1494140625 l 1
 81.12890625 52.8291015625 l 1
 46.48828125 72.8291015625 l 1
655.30078125 537.415039062 m 0
 657.458007812 552.705078125 658.538085938 566.751953125 658.538085938 579.553710938 c 0
 658.538085938 619.81640625 647.870117188 647.77734375 626.533203125 663.435546875 c 0
 620.600585938 667.671875 613.805664062 669.790039062 606.1484375 669.790039062 c 0
 529.45703125 669.790039062 366.287109375 457.303710938 116.638671875 32.330078125 c 1
 115.772460938 32.830078125 l 1
 103.092773438 10.8681640625 87.470703125 -0.1123046875 68.90625 -0.1123046875 c 0
 58.1884765625 -0.1123046875 46.4892578125 3.5478515625 33.8095703125 10.8681640625 c 0
 11.841796875 23.55078125 0.8583984375 39.1728515625 0.8583984375 57.7333984375 c 0
 0.8583984375 68.5224609375 4.5693359375 80.3037109375 11.9912109375 93.078125 c 0
 277.61328125 554.809570312 477.1171875 785.67578125 610.502929688 785.67578125 c 0
 630.2890625 785.67578125 648.62109375 780.595703125 665.498046875 770.435546875 c 0
 738.512695312 726.626953125 775.01953125 655.614257812 775.01953125 557.397460938 c 0
 775.01953125 543.516601562 774.290039062 529.092773438 772.83203125 514.125 c 0
 769.646484375 477.719726562 749.943359375 459.516601562 713.72265625 459.516601562 c 0
 710.297851562 459.516601562 706.725585938 459.6796875 703.004882812 460.004882812 c 0
 668.8671875 462.991210938 651.798828125 479.82421875 651.798828125 510.50390625 c 0
 651.798828125 518.52734375 652.965820312 527.498046875 655.30078125 537.415039062 c 0
EndSplineSet
EndChar

StartChar: luUa3
Encoding: 57526 57526 78
Width: 882
GlyphClass: 2
Flags: MW
HStem: 626.327 120
VStem: 762.274 120.001
LayerCount: 2
Fore
SplineSet
45.62109375 74.095703125 m 1
 52.94140625 46.775390625 l 1
 72.94140625 81.416015625 l 1
 80.2626953125 54.095703125 l 1
 45.62109375 74.095703125 l 1
802.275390625 522.325195312 m 1
 822.275390625 502.325195312 l 1
 822.275390625 542.325195312 l 1
 842.275390625 522.325195312 l 1
 802.275390625 522.325195312 l 1
114.903320312 34.095703125 m 1
 102.223632812 12.1337890625 86.6005859375 1.154296875 68.0361328125 1.154296875 c 0
 57.318359375 1.154296875 45.619140625 4.814453125 32.939453125 12.134765625 c 0
 10.9697265625 24.8193359375 -0.015625 40.44140625 -0.015625 59 c 0
 -0.015625 69.8291015625 3.724609375 81.658203125 11.205078125 94.4873046875 c 0
 262.915039062 529.046875 472.348632812 746.327148438 639.505859375 746.327148438 c 0
 639.76171875 746.327148438 640.017578125 746.326171875 640.2734375 746.325195312 c 0
 800.940429688 746.325195312 881.607421875 671.658203125 882.274414062 522.325195312 c 0
 882.274414062 482.325195312 862.274414062 462.325195312 822.274414062 462.325195312 c 0
 782.275390625 462.325195312 762.275390625 482.325195312 762.274414062 522.325195312 c 0
 761.608398438 591.658203125 719.942382812 626.325195312 637.275390625 626.325195312 c 0
 637.075195312 626.326171875 636.874023438 626.327148438 636.672851562 626.327148438 c 0
 517.357421875 626.327148438 343.723632812 428.75 115.770507812 33.5966796875 c 1
 114.903320312 34.095703125 l 1
EndSplineSet
EndChar

StartChar: luUa4
Encoding: 57527 57527 79
Width: 451
GlyphClass: 2
Flags: MW
HStem: 183 119.515
VStem: 0 120<39 100.333 39 140.172> 331 120<59 113.667>
LayerCount: 2
Fore
SplineSet
371 79 m 1
 391 59 l 1
 391 99 l 1
 411 79 l 1
 371 79 l 1
40 59 m 1
 60 39 l 1
 60 79 l 1
 80 59 l 1
 40 59 l 1
451 79 m 0
 451 39 431 19 391 19 c 0
 351 19 331 39 331 79 c 0
 331 148.333007812 295.833007812 183 225.5 183 c 0
 155.166992188 183 120 141.666992188 120 59 c 0
 120 19 100 -1 60 -1 c 0
 20 -1 0 19 0 59 c 0
 -0 221.34375 74.8681640625 302.515625 224.604492188 302.515625 c 0
 224.90234375 302.515625 225.201171875 302.515625 225.5 302.514648438 c 0
 375.833007812 302.190429688 451 227.685546875 451 79 c 0
EndSplineSet
EndChar

StartChar: luNdol
Encoding: 57528 57528 80
Width: 452
GlyphClass: 2
Flags: MW
HStem: -70.5232 125.48
VStem: 0 452
LayerCount: 2
Fore
SplineSet
412 105 m 1
 392 125 l 1
 392 85 l 1
 372 105 l 1
 412 105 l 1
80 60 m 1
 60 80 l 1
 60 40 l 1
 40 60 l 1
 80 60 l 1
60 120 m 0
 83.2998046875 120 100.1875 111.921875 110.666992188 95.7666015625 c 1
 110.998046875 96 l 1
 135.567382812 68.6376953125 167.26953125 54.95703125 206.104492188 54.95703125 c 0
 213.633789062 54.95703125 221.431640625 55.4716796875 229.497070312 56.5 c 0
 279.1640625 62.8330078125 314.331054688 87 334.998046875 129 c 1
 335.563476562 128.76171875 l 1
 343.733398438 152.920898438 362.544921875 165 391.998046875 165 c 0
 431.998046875 165 451.998046875 145 451.998046875 105 c 0
 451.998046875 96.1318359375 450.881835938 88.1806640625 448.6484375 81.1474609375 c 1
 448.998046875 81 l 1
 448.509765625 79.94140625 447.579101562 77.6982421875 446.20703125 74.2705078125 c 0
 444.834960938 70.8427734375 442.905273438 67.6435546875 440.418945312 64.6728515625 c 0
 437.932617188 61.7021484375 436.125976562 59.521484375 434.999023438 58.130859375 c 0
 384.999023438 -15.2900390625 324.666015625 -56.6669921875 253.999023438 -66 c 0
 231.564453125 -69.015625 210.525390625 -70.5234375 190.8828125 -70.5234375 c 0
 108.971679688 -70.5234375 51.34375 -44.3037109375 17.9990234375 8.13671875 c 0
 15.7890625 12.4814453125 12.236328125 18.251953125 7.341796875 25.4482421875 c 0
 2.447265625 32.64453125 0 44.162109375 0 60 c 0
 0 100 20 120 60 120 c 0
EndSplineSet
EndChar

StartChar: luNgor
Encoding: 57529 57529 81
Width: 452
VWidth: 2998
GlyphClass: 2
Flags: MW
HStem: 110.038 125.48
VStem: 0 452
LayerCount: 2
Fore
SplineSet
372 104.995117188 m 1
 392 84.9951171875 l 1
 392 124.995117188 l 1
 412 104.995117188 l 1
 372 104.995117188 l 1
40 59.9951171875 m 1
 60 39.9951171875 l 1
 60 79.9951171875 l 1
 80 59.9951171875 l 1
 40 59.9951171875 l 1
452 104.995117188 m 0
 452 64.9951171875 432.001953125 44.99609375 392.001953125 44.99609375 c 0
 368.702148438 44.99609375 351.8125 53.07421875 341.333007812 69.2294921875 c 1
 341.001953125 68.99609375 l 1
 316.432617188 96.357421875 284.73046875 110.038085938 245.895507812 110.038085938 c 0
 238.366210938 110.038085938 230.568359375 109.5234375 222.502929688 108.495117188 c 0
 172.8359375 102.162109375 137.668945312 77.9951171875 117.001953125 35.9951171875 c 1
 116.436523438 36.2333984375 l 1
 108.266601562 12.07421875 89.455078125 -0.0048828125 60.001953125 -0.0048828125 c 0
 20.001953125 -0.0048828125 0.001953125 19.9951171875 0.001953125 59.9951171875 c 0
 0.001953125 68.86328125 1.1181640625 76.814453125 3.3515625 83.84765625 c 1
 3.001953125 83.9951171875 l 1
 3.490234375 85.0537109375 4.4208984375 87.296875 5.79296875 90.724609375 c 0
 7.1650390625 94.15234375 9.0947265625 97.3515625 11.5810546875 100.322265625 c 0
 14.0673828125 103.29296875 15.8740234375 105.473632812 17.0009765625 106.864257812 c 0
 67.0009765625 180.28515625 127.333984375 221.662109375 198.000976562 230.995117188 c 0
 220.435546875 234.010742188 241.474609375 235.518554688 261.1171875 235.518554688 c 0
 343.028320312 235.518554688 400.65625 209.298828125 434.000976562 156.858398438 c 0
 436.2109375 152.513671875 439.763671875 146.743164062 444.658203125 139.546875 c 0
 449.552734375 132.350585938 452 120.833007812 452 104.995117188 c 0
EndSplineSet
EndChar

StartChar: luNOdol
Encoding: 57530 57530 82
Width: 776
GlyphClass: 2
Flags: MW
HStem: -128.025 126.587
VStem: 0 776
LayerCount: 2
Fore
SplineSet
80 60 m 1
 60 80 l 1
 60 40 l 1
 40 60 l 1
 80 60 l 1
736 105 m 1
 716 125 l 1
 716 85 l 1
 696 105 l 1
 736 105 l 1
60 120 m 0
 83.2998046875 120 100.19140625 111.919921875 110.670898438 95.7646484375 c 1
 111.001953125 95.998046875 l 1
 172.92578125 31.0390625 256.271484375 -1.4404296875 361.040039062 -1.4404296875 c 0
 371.321289062 -1.4404296875 381.80859375 -1.1279296875 392.501953125 -0.501953125 c 0
 512.168945312 6.498046875 601.001953125 49.6650390625 659.001953125 128.998046875 c 1
 659.567382812 128.759765625 l 1
 667.737304688 152.918945312 686.548828125 164.998046875 716.001953125 164.998046875 c 0
 756.001953125 164.998046875 776.001953125 144.998046875 776.001953125 104.998046875 c 0
 776.001953125 96.1298828125 774.885742188 88.1787109375 772.65234375 81.1455078125 c 1
 773.001953125 80.998046875 l 2
 772.564453125 79.94921875 771.65625 77.765625 770.27734375 74.4482421875 c 0
 768.779296875 70.8427734375 759.6875 57.4033203125 743.000976562 34.1298828125 c 0
 668.388671875 -70.416015625 548.235351562 -124.407226562 382.541015625 -127.844726562 c 0
 376.701171875 -127.965820312 370.916015625 -128.026367188 365.185546875 -128.026367188 c 0
 208.3359375 -128.026367188 92.607421875 -82.638671875 18 8.1357421875 c 0
 6 25.4560546875 0 42.744140625 0 60 c 0
 0 100 20 120 60 120 c 0
EndSplineSet
EndChar

StartChar: luONgor
Encoding: 57531 57531 83
Width: 776
GlyphClass: 2
Flags: MW
HStem: -0.413086 21G 166.025 126.587
VStem: 3.34941 772.651
LayerCount: 2
Fore
SplineSet
40 59.5869140625 m 1
 60 39.5869140625 l 1
 60 79.5869140625 l 1
 80 59.5869140625 l 1
 40 59.5869140625 l 1
696 104.586914062 m 1
 716 84.5869140625 l 1
 716 124.586914062 l 1
 736 104.586914062 l 1
 696 104.586914062 l 1
116.434570312 35.8251953125 m 1
 108.264648438 11.666015625 89.451171875 -0.4111328125 59.998046875 -0.4111328125 c 0
 19.998046875 -0.4111328125 -0.001953125 19.5888671875 -0.001953125 59.5888671875 c 0
 -0.001953125 68.45703125 1.1142578125 76.408203125 3.34765625 83.44140625 c 1
 2.998046875 83.5888671875 l 2
 3.435546875 84.6376953125 4.34375 86.8212890625 5.72265625 90.138671875 c 0
 7.220703125 93.744140625 16.3125 107.18359375 32.9990234375 130.45703125 c 0
 107.611328125 235.002929688 227.764648438 288.994140625 393.458984375 292.431640625 c 0
 399.298828125 292.552734375 405.083984375 292.61328125 410.814453125 292.61328125 c 0
 567.6640625 292.61328125 683.392578125 247.225585938 758 156.451171875 c 0
 770 139.130859375 776 121.842773438 776 104.586914062 c 0
 776 64.5869140625 756 44.5869140625 716 44.5869140625 c 0
 692.700195312 44.5869140625 675.810546875 52.6650390625 665.331054688 68.8203125 c 1
 665 68.5869140625 l 1
 603.076171875 133.545898438 519.73046875 166.025390625 414.961914062 166.025390625 c 0
 404.680664062 166.025390625 394.193359375 165.712890625 383.5 165.086914062 c 0
 263.833007812 158.086914062 175 114.919921875 117 35.5869140625 c 1
 116.434570312 35.8251953125 l 1
EndSplineSet
EndChar

StartChar: dolTW
Encoding: 57538 57538 84
Width: 237
GlyphClass: 2
Flags: MW
HStem: -13.8076 154.243
VStem: -0.82016 265.889
LayerCount: 2
Fore
SplineSet
225 60 m 1
 205 80 l 1
 205 40 l 1
 185 60 l 1
 225 60 l 1
80 80 m 1
 60 100 l 1
 60 60 l 1
 40 80 l 1
 80 80 l 1
0 96 m 2
 0.951171875 98.283203125 2.384765625 101.967773438 4.298828125 107.05859375 c 0
 6.212890625 112.149414062 8.638671875 116.323242188 11.5751953125 119.581054688 c 0
 14.51171875 122.838867188 17.650390625 127.056640625 20.990234375 132.233398438 c 0
 24.330078125 137.41015625 30.94921875 139.999023438 40.84765625 139.999023438 c 0
 50.74609375 139.999023438 61.3818359375 140.14453125 72.7548828125 140.434570312 c 0
 84.1279296875 140.724609375 94.8916015625 135.0234375 105.045898438 123.331054688 c 0
 124.626953125 100.783203125 146.435546875 96.8212890625 170.471679688 111.4453125 c 0
 177.35546875 117.654296875 185.3984375 120.62890625 194.599609375 120.369140625 c 0
 203.80078125 120.109375 211.0390625 120.124023438 216.314453125 120.412109375 c 0
 248.817382812 122.189453125 265.069335938 101.619140625 265.069335938 58.7021484375 c 0
 265.069335938 10.3603515625 219.240234375 -13.810546875 127.581054688 -13.810546875 c 0
 127.055664062 -13.810546875 126.528320312 -13.8095703125 126 -13.8076171875 c 0
 65.671875 -13.8994140625 27.0068359375 4.7822265625 10.005859375 42.23828125 c 0
 2.2412109375 53.6982421875 -1.3671875 64.6142578125 -0.8203125 74.9853515625 c 0
 -0.2734375 85.3564453125 0 92.0283203125 0 95 c 2
 0 96 l 2
EndSplineSet
EndChar

StartChar: dolMK30
Encoding: 57539 57539 85
Width: 434
GlyphClass: 2
Flags: MW
HStem: -166 304.471
VStem: 0 120.469<59 59 59 68.4072 68.4072 76.999 76.999 78 59 97.3325>
LayerCount: 2
Fore
SplineSet
80.46875 78 m 1
 60.46875 98 l 1
 60.46875 58 l 1
 40.46875 78 l 1
 80.46875 78 l 1
80.46875 59 m 1
 60.46875 79 l 1
 60.46875 39 l 1
 40.46875 59 l 1
 80.46875 59 l 1
120.46875 59 m 1
 119.46875 35.9990234375 l 1
 0 -166.000976562 l 1
 0 76.9990234375 l 2
 0 117.666015625 18.8505859375 138.15625 56.55078125 138.470703125 c 0
 56.919921875 138.473632812 57.287109375 138.475585938 57.65234375 138.475585938 c 0
 99.5302734375 138.475585938 120.46875 118.317382812 120.46875 78 c 2
 120.46875 68.4072265625 l 1
 120.46875 59 l 1
EndSplineSet
EndChar

StartChar: dolETW
Encoding: 57540 57540 86
Width: 335
GlyphClass: 2
Flags: MW
HStem: 20.084 120.503<169.623 177.741 169.623 169.623>
VStem: 0 121.187
LayerCount: 2
Fore
SplineSet
80 180 m 1
 60 200 l 1
 60 160 l 1
 40 180 l 1
 80 180 l 1
202 80 m 1
 182 100 l 1
 182 60 l 1
 162 80 l 1
 202 80 l 1
0 180 m 2
 0 220 19.9990234375 240.001953125 59.9990234375 240.001953125 c 0
 99.9990234375 240.001953125 119.999023438 220.001953125 119.999023438 180.001953125 c 1
 120.185546875 180.001953125 l 1
 121.185546875 169.65234375 l 2
 121.061523438 160.551757812 125.333007812 153.16796875 134 147.500976562 c 0
 142.666992188 141.833984375 153.169921875 139.529296875 165.508789062 140.586914062 c 2
 181.6953125 140.586914062 l 1
 181.6953125 140 l 1
 181.796875 140 181.8984375 140 182 140 c 0
 222 140 242 120 242 80 c 0
 242 40 222 20 182 20 c 0
 180.5546875 20 179.134765625 20.0283203125 177.741210938 20.083984375 c 2
 169.623046875 20.083984375 l 2
 56.541015625 19.9453125 0 69.80078125 0 169.650390625 c 2
 0 180 l 2
EndSplineSet
EndChar

StartChar: dolMKE
Encoding: 57541 57541 87
Width: 120
GlyphClass: 2
Flags: MW
HStem: -10 210<0 80>
VStem: 0 120<7 140 7 140 7 160>
LayerCount: 2
Fore
SplineSet
80 60 m 1
 60 80 l 1
 60 40 l 1
 40 60 l 1
 80 60 l 1
80 140 m 1
 60 160 l 1
 60 120 l 1
 40 140 l 1
 80 140 l 1
0 140 m 2
 0 180 20 200 60 200 c 0
 100 200 120 180 120 140 c 2
 120 7 l 1
 0 -10 l 1
 0 140 l 2
EndSplineSet
EndChar

StartChar: dolLUK
Encoding: 57545 57545 88
Width: 517
GlyphClass: 2
Flags: MW
HStem: -140.006 120.006
VStem: 0 120
LayerCount: 2
Fore
SplineSet
80 60 m 1
 60 80 l 1
 60 40 l 1
 40 60 l 1
 80 60 l 1
410 24 m 1
 390 44 l 1
 390 4 l 1
 370 24 l 1
 410 24 l 1
0.0048828125 61 m 2
 0.4111328125 100.333007812 20.513671875 120 60.30859375 120 c 0
 100.103515625 120 120.000976562 100 120.000976562 60 c 2
 120.000976562 24 l 2
 120.000976562 -5.3330078125 158.66796875 -20 236.000976562 -20 c 0
 277.333984375 -20 310.000976562 4 334.000976562 52 c 1
 334.974609375 51.4912109375 l 1
 344.046875 73.1640625 362.388671875 84 390.000976562 84 c 0
 430.000976562 84 450.000976562 64 450.000976562 24 c 0
 450.000976562 12.57421875 448.147460938 2.671875 444.44140625 -5.7080078125 c 1
 445.000976562 -6 l 1
 393.66796875 -95.3330078125 323.66796875 -140 235.000976562 -140 c 0
 234.057617188 -140.00390625 233.116210938 -140.005859375 232.177734375 -140.005859375 c 0
 77.392578125 -140.005859375 0 -85.3369140625 0 24 c 2
 -0 60 l 1
 0.0048828125 61 l 2
EndSplineSet
EndChar

StartChar: gorLUK
Encoding: 57546 57546 89
Width: 450
GlyphClass: 2
Flags: MW
HStem: 104.994 120.006
VStem: 330 120
LayerCount: 2
Fore
SplineSet
40 60.994140625 m 1
 60 40.994140625 l 1
 60 80.994140625 l 1
 80 60.994140625 l 1
 40 60.994140625 l 1
370 24.994140625 m 1
 390 4.994140625 l 1
 390 44.994140625 l 1
 410 24.994140625 l 1
 370 24.994140625 l 1
115.026367188 33.5029296875 m 1
 105.954101562 11.830078125 87.6103515625 0.994140625 59.998046875 0.994140625 c 0
 19.998046875 0.994140625 -0.001953125 20.994140625 -0.001953125 60.994140625 c 0
 -0.001953125 72.419921875 1.8515625 82.322265625 5.5576171875 90.7021484375 c 1
 4.998046875 90.994140625 l 1
 56.3310546875 180.327148438 126.331054688 224.994140625 214.998046875 224.994140625 c 0
 215.94140625 224.998046875 216.8828125 225 217.821289062 225 c 0
 372.606445312 225 449.999023438 170.331054688 449.999023438 60.994140625 c 2
 449.999023438 24.994140625 l 1
 449.994140625 23.994140625 l 2
 449.587890625 -15.3388671875 429.487304688 -35.005859375 389.692382812 -35.005859375 c 0
 349.897460938 -35.005859375 330 -15.005859375 330 24.994140625 c 2
 330 60.994140625 l 2
 330 90.3271484375 291.333007812 104.994140625 214 104.994140625 c 0
 172.666992188 104.994140625 140 80.994140625 116 32.994140625 c 1
 115.026367188 33.5029296875 l 1
EndSplineSet
EndChar

StartChar: gorOMluk
Encoding: 57547 57547 90
Width: 780
GlyphClass: 2
Flags: MW
HStem: 0 21G<39.999 74.4839> 201.007 130.008
VStem: 0 116.089 660 120
LayerCount: 2
Fore
SplineSet
700 23 m 1
 720 3 l 1
 720 43 l 1
 740 23 l 1
 700 23 l 1
40 60 m 1
 60 40 l 1
 60 80 l 1
 80 60 l 1
 40 60 l 1
779.995117188 22 m 2
 779.588867188 -17.3330078125 759.486328125 -37 719.69140625 -37 c 0
 679.896484375 -37 659.999023438 -17 659.999023438 23 c 2
 659.999023438 59 l 2
 659.999023438 153.670898438 566.313476562 201.006835938 378.943359375 201.006835938 c 0
 377.6328125 201.006835938 376.318359375 201.004882812 374.999023438 201 c 0
 257.174804688 200.341796875 170.87109375 145.090820312 116.087890625 35.2470703125 c 0
 107.665039062 11.7490234375 88.96875 0 59.9990234375 0 c 0
 19.9990234375 0 -0.0009765625 20 -0.0009765625 60 c 0
 -0.0009765625 71.056640625 1.734375 80.6865234375 5.205078125 88.890625 c 1
 4.9990234375 89 l 1
 5.5029296875 89.919921875 6.076171875 91.0029296875 6.71875 92.25 c 0
 7.361328125 93.4970703125 8.142578125 94.8525390625 9.0625 96.3173828125 c 0
 96.791015625 252.116210938 219.103515625 330.34375 376 331 c 0
 377.952148438 331.009765625 379.896484375 331.014648438 381.833984375 331.014648438 c 0
 647.278320312 331.014648438 780 240.342773438 780 59 c 2
 780 23 l 1
 779.995117188 22 l 2
EndSplineSet
EndChar

StartChar: dolMOluk
Encoding: 57548 57548 91
Width: 780
GlyphClass: 2
Flags: MW
HStem: -248 130.008
VStem: 0 120 663.911 116.089
LayerCount: 2
Fore
SplineSet
740 23.0146484375 m 1
 720 43.0146484375 l 1
 720 3.0146484375 l 1
 700 23.0146484375 l 1
 740 23.0146484375 l 1
80 60.0146484375 m 1
 60 80.0146484375 l 1
 60 40.0146484375 l 1
 40 60.0146484375 l 1
 80 60.0146484375 l 1
0.0048828125 61.0146484375 m 2
 0.4111328125 100.34765625 20.513671875 120.014648438 60.30859375 120.014648438 c 0
 100.103515625 120.014648438 120.000976562 100.014648438 120.000976562 60.0146484375 c 2
 120.000976562 24.0146484375 l 2
 120.000976562 -70.65625 213.686523438 -117.9921875 401.056640625 -117.9921875 c 0
 402.3671875 -117.9921875 403.681640625 -117.990234375 405.000976562 -117.985351562 c 0
 522.825195312 -117.327148438 609.12890625 -62.076171875 663.912109375 47.767578125 c 0
 672.334960938 71.265625 691.03125 83.0146484375 720.000976562 83.0146484375 c 0
 760.000976562 83.0146484375 780.000976562 63.0146484375 780.000976562 23.0146484375 c 0
 780.000976562 11.9580078125 778.265625 2.328125 774.794921875 -5.8759765625 c 1
 775.000976562 -5.9853515625 l 1
 774.497070312 -6.9052734375 773.923828125 -7.98828125 773.28125 -9.2353515625 c 0
 772.638671875 -10.482421875 771.857421875 -11.837890625 770.9375 -13.302734375 c 0
 683.208984375 -169.1015625 560.896484375 -247.329101562 404 -247.985351562 c 0
 402.047851562 -247.995117188 400.103515625 -248 398.166015625 -248 c 0
 132.721679688 -248 0 -157.328125 0 24.0146484375 c 2
 -0 60.0146484375 l 1
 0.0048828125 61.0146484375 l 2
EndSplineSet
EndChar

StartChar: gorMKE
Encoding: 57551 57551 92
Width: 448
GlyphClass: 2
Flags: MW
HStem: 0 193<0 80>
VStem: 0 120<60 193 193 193>
LayerCount: 2
Fore
SplineSet
40 60 m 1
 60 40 l 1
 60 80 l 1
 80 60 l 1
 40 60 l 1
40 140 m 1
 60 120 l 1
 60 160 l 1
 80 140 l 1
 40 140 l 1
120 60 m 2
 120 20 100 0 60 0 c 0
 20 0 0 20 0 60 c 2
 0 193 l 1
 120 210 l 1
 120 60 l 2
EndSplineSet
EndChar

StartChar: gorMK45
Encoding: 57552 57552 93
Width: 120
GlyphClass: 2
Flags: MW
HStem: 0 220<41 121.469 61 121.469 61.2227 121.469>
VStem: 1.49319 119.976
LayerCount: 2
Fore
SplineSet
41 60 m 1
 61 40 l 1
 61 80 l 1
 81 60 l 1
 41 60 l 1
41 80 m 1
 61 60 l 1
 61 100 l 1
 81 80 l 1
 41 80 l 1
1 60 m 2
 1.494140625 70.5390625 l 2
 0.748046875 77.4130859375 0.611328125 84.3291015625 1.0830078125 91.287109375 c 0
 1.5546875 98.2451171875 1.8603515625 105.149414062 2 112 c 1
 121.46875 220 l 1
 121.46875 59 l 2
 121.46875 19.6669921875 101.46875 0 61.46875 0 c 0
 61.38671875 -0 61.3046875 -0 61.22265625 0 c 0
 61.1484375 0 61.07421875 0 61 0 c 0
 21 0 1 20 1 60 c 2
EndSplineSet
EndChar

StartChar: OstrI
Encoding: 57553 57553 94
Width: 120
GlyphClass: 2
Flags: MW
HStem: -85 285<40 120>
VStem: 0 120<30 140 -85 160>
LayerCount: 2
Fore
SplineSet
80 140 m 1
 60 160 l 1
 60 120 l 1
 40 140 l 1
 80 140 l 1
80 59 m 1
 60 79 l 1
 60 39 l 1
 40 59 l 1
 80 59 l 1
0 140 m 2
 0 180 20 200 60 200 c 0
 100 200 120 180 120 140 c 2
 120 -85 l 1
 21.7255859375 9.1796875 l 1
 0 30 l 1
 0 140 l 2
EndSplineSet
EndChar

StartChar: dolMK45
Encoding: 65538 -1 96
Width: 666
GlyphClass: 2
Flags: MW
HStem: -80 220<0 80> 0 120<40.4688 80.4688> 20 120<40.4688 80 80 80.4688>
VStem: 0 119.469<28 28 28 81 28 100.667> 0.46875 120<40 80 60 80 80 100> 0.468796 120
LayerCount: 2
Fore
SplineSet
119.46875 28 m 1x30
 0 -80 l 1x90
 0 81 l 2
 0 120.333007812 20 140 60 140 c 0
 100 140 120 120.333007812 120 81 c 0
 120 63 119.823242188 45.3330078125 119.46875 28 c 1x30
80.46875 60 m 1x44
 60.46875 80 l 1
 60.46875 40 l 1
 40.46875 60 l 1
 80.46875 60 l 1x44
0.46875 60 m 0
 0.46875 100 20.46875 120 60.46875 120 c 0
 100.46875 120 120.46875 100 120.46875 60 c 0
 120.46875 20 100.46875 0 60.46875 0 c 0
 20.46875 0 0.46875 20 0.46875 60 c 0
80.46875 80 m 1x28
 60.46875 100 l 1
 60.46875 60 l 1
 40.46875 80 l 1
 80.46875 80 l 1x28
0.46875 80 m 0
 0.46875 120 20.46875 140 60.46875 140 c 0
 100.46875 140 120.46875 120 120.46875 80 c 0
 120.46875 40 100.46875 20 60.46875 20 c 0
 20.46875 20 0.46875 40 0.46875 80 c 0
EndSplineSet
EndChar
